<svg width="49" height="50" viewBox="0 0 49 50" fill="none" xmlns="http://www.w3.org/2000/svg">
<path fill-rule="evenodd" clip-rule="evenodd" d="M1.52279 0.13374C1.05476 0.303626 0.470948 0.825887 0.217653 1.30116L0 1.70961V22.8599V44.0102L0.212102 44.4076C0.494125 44.9362 1.11621 45.4871 1.57557 45.6151C1.78027 45.672 2.44073 45.7189 3.04324 45.7192L4.13881 45.7198L4.13978 46.9654C4.14056 48.0763 4.16617 48.2657 4.37603 48.7179C4.63839 49.2833 5.20302 49.7608 5.79949 49.9219C6.03974 49.9868 11.7975 50.0118 22.6639 49.9949L39.1635 49.9694L39.6402 49.6738C39.9356 49.4905 40.229 49.1962 40.4117 48.8999L40.7064 48.4217L40.733 40.361L40.7595 32.3002L42.149 33.6823C43.7817 35.3062 44.109 35.4995 45.2353 35.5048C45.8422 35.5079 46.0605 35.4621 46.5221 35.2356C47.978 34.521 48.5996 32.7877 47.9279 31.3158C47.5625 30.5152 45.7929 28.7214 45.3685 28.7214C44.8006 28.7214 44.4217 29.257 44.6587 29.7248C44.7195 29.8446 45.1837 30.364 45.6903 30.8791C46.4038 31.6045 46.631 31.9018 46.6984 32.198C46.9562 33.332 45.9214 34.3273 44.8208 34.0037C44.4695 33.9003 43.9471 33.4222 41.3632 30.8393C39.6891 29.1657 38.3306 27.769 38.3443 27.7356C38.358 27.7021 38.6149 27.4596 38.9152 27.1967C39.2155 26.9338 39.6757 26.4699 39.9377 26.1658L40.4142 25.6129L41.5023 26.6787C42.6194 27.7729 42.8341 27.8899 43.2833 27.6488C43.5596 27.5004 43.6776 27.0516 43.5293 26.7119C43.4607 26.5544 42.9226 25.9475 42.3339 25.3632L41.2631 24.3009L41.5896 23.6048C42.0478 22.6275 42.3826 21.3844 42.5119 20.1786C42.7435 18.021 42.2044 15.5156 41.1341 13.7745L40.8038 13.2372L40.7551 9.56589L40.7064 5.89453L40.4117 5.41652C40.2294 5.12101 39.9352 4.82578 39.6407 4.6429C39.1862 4.36077 39.1082 4.34582 37.9261 4.31534L36.6876 4.2834L36.6432 3.04535C36.6117 2.16378 36.5492 1.68733 36.426 1.39055C36.2149 0.881669 35.5447 0.270118 35.0282 0.114886C34.7455 0.0298937 31.9206 0 24.1826 0C13.7871 0 13.7178 0.00127 13.506 0.199194C13.2195 0.466967 13.2195 0.998411 13.506 1.26618C13.7178 1.46411 13.7872 1.46538 24.1641 1.46538H34.609L34.8822 1.70101C35.1489 1.93127 35.156 1.9639 35.19 3.11754L35.2248 4.29844L20.5825 4.29942L5.94041 4.3004L5.44657 4.53105C4.88058 4.7954 4.41109 5.31444 4.24992 5.85389C4.16831 6.12723 4.13881 11.276 4.13881 25.2402V44.2544H3.07304C2.08674 44.2544 1.98682 44.2368 1.73401 44.0187L1.46076 43.7828V22.8599V1.93694L1.73401 1.70111L2.00727 1.46538L6.40843 1.46225C9.86487 1.45981 10.8453 1.43187 10.9762 1.33222C11.3597 1.03993 11.3603 0.425839 10.9774 0.134131C10.7435 -0.0441567 2.0137 -0.0444498 1.52279 0.13374ZM38.9133 5.88906C39.264 6.15918 39.2943 6.39813 39.2943 8.8926V11.3504L38.8317 10.9652C37.5641 9.90947 36.0879 9.13634 34.5426 8.7189C33.6884 8.48815 33.4286 8.46353 31.8445 8.46353C30.2603 8.46353 30.0005 8.48815 29.1464 8.7189C25.667 9.65879 22.9954 12.1731 21.7345 15.6942C21.1807 17.2406 21.015 19.5184 21.3337 21.2039C22.3135 26.3854 27.2439 30.2091 32.4855 29.8528C33.9109 29.7559 35.4063 29.3606 36.5534 28.7775L37.022 28.5392L38.1581 29.682L39.2943 30.8247V39.4032V47.9817L39.0097 48.2673L38.725 48.5528H22.4983C5.18782 48.5528 5.8364 48.5699 5.66004 48.1088C5.62683 48.0219 5.59956 38.5666 5.59956 27.0971V6.24339L5.83864 6.00365L6.07762 5.76382L22.4182 5.76694C35.1096 5.76939 38.7932 5.79664 38.9133 5.88906ZM34.1817 10.1503C36.3558 10.728 38.3526 12.1605 39.5629 14.0108C40.9967 16.2029 41.4371 18.6967 40.8456 21.2747C40.1257 24.4132 37.729 26.9692 34.5689 27.9687C29.5637 29.5517 24.4065 26.7032 22.9131 21.5308C22.7185 20.8569 22.6912 20.5499 22.6961 19.0988C22.7015 17.5816 22.7247 17.3637 22.9646 16.5795C23.4912 14.8585 24.2799 13.5882 25.5892 12.352C26.836 11.1749 28.2675 10.4165 29.928 10.0535C31.0649 9.80484 33.0518 9.85007 34.1817 10.1503ZM8.99767 10.3665C8.75509 10.4558 8.52107 10.8059 8.52107 11.0794C8.52107 11.1503 8.61193 11.324 8.72295 11.4656L8.92473 11.723H13.7798H18.6349L18.8366 11.4656C19.1827 11.0243 19.0478 10.5631 18.5129 10.3591C18.1691 10.228 9.35536 10.2348 8.99767 10.3665ZM30.4397 11.5361C28.6426 11.8899 26.832 13.0104 25.7754 14.4228C23.4816 17.4889 23.6827 21.641 26.257 24.3691C26.7286 24.869 27.3344 25.3847 27.7697 25.6569C32.1867 28.4186 37.9657 26.1058 39.3045 21.0407C39.5878 19.9691 39.5865 18.3213 39.3015 17.2426C38.528 14.3145 36.3071 12.1814 33.4059 11.5803C32.6295 11.4194 31.1452 11.3973 30.4397 11.5361ZM33.3777 13.0844C36.1653 13.7996 38.0475 16.2162 38.0621 19.0988C38.0677 20.1926 37.9225 20.8226 37.4206 21.883C36.7201 23.3626 35.1735 24.6691 33.5591 25.1451C30.2615 26.1173 26.5998 23.9751 25.8122 20.613C25.6213 19.7978 25.6193 18.3746 25.8081 17.6295C26.2563 15.8611 27.5558 14.2759 29.2049 13.4864C30.4719 12.8797 32.0048 12.7321 33.3777 13.0844ZM8.76015 14.6982C8.62868 14.8301 8.52107 15.0519 8.52107 15.1911C8.52107 15.3303 8.62868 15.5521 8.76015 15.6839L8.99913 15.9238H13.7798H18.5605L18.7994 15.6839C19.1041 15.3784 19.1041 15.0038 18.7994 14.6982L18.5605 14.4584H13.7798H8.99913L8.76015 14.6982ZM32.9825 17.6727C32.0888 18.5273 31.1622 19.4285 30.9234 19.6754C30.6846 19.9224 30.4549 20.1245 30.413 20.1245C30.3711 20.1245 30.1194 19.69 29.8538 19.1588C29.4719 18.3957 29.3134 18.173 29.0976 18.0976C28.6231 17.9317 28.1052 18.2551 28.0983 18.7216C28.0966 18.8365 28.4216 19.5923 28.8207 20.4013C29.5867 21.9542 29.8359 22.2493 30.2857 22.1361C30.4219 22.1018 31.6511 20.9891 33.0619 19.6229C35.3395 17.4175 35.5937 17.1397 35.5937 16.8576C35.5937 16.4711 35.2513 16.1192 34.8752 16.1192C34.6626 16.1192 34.2735 16.4385 32.9825 17.6727ZM8.99767 18.6703C8.75509 18.7596 8.52107 19.1097 8.52107 19.3832C8.52107 19.4541 8.61193 19.6279 8.72295 19.7694L8.92473 20.0268H13.7798H18.6349L18.8366 19.7694C19.1827 19.3281 19.0478 18.8669 18.5129 18.663C18.1691 18.5318 9.35536 18.5386 8.99767 18.6703ZM8.72295 23.3127C8.47131 23.6336 8.46605 23.9424 8.70727 24.2412L8.89337 24.4718H13.7798H18.6662L18.8523 24.2412C19.0935 23.9424 19.0883 23.6336 18.8366 23.3127L18.6349 23.0553H13.7798H8.92473L8.72295 23.3127ZM15.9726 28.543C14.4939 28.6865 12.8514 29.3712 11.6175 30.3586C10.3683 31.3582 9.23879 33.1108 8.80037 34.7295C8.5013 35.834 8.49984 37.8157 8.79745 38.9302C9.99614 43.4199 14.5072 46.0902 18.9604 44.9461C19.5449 44.7959 20.6749 44.3306 21.2884 43.9874C21.3207 43.9694 21.5605 44.4441 21.8212 45.0425C22.0892 45.6576 22.3974 46.211 22.5303 46.3158C22.753 46.4916 22.9885 46.5013 27.024 46.5013C31.1849 46.5013 31.2885 46.4966 31.5392 46.2988C31.8317 46.068 31.887 45.5894 31.6576 45.2744C31.5257 45.0934 31.3358 45.0825 27.4583 45.0359L23.397 44.9871L22.9728 44.0268L22.5486 43.0665L23.1215 42.3987C24.6832 40.5786 25.4492 38.1808 25.1796 35.9569C25.0915 35.2292 24.8587 34.2671 24.6203 33.6434C24.5768 33.5299 25.1513 33.5083 28.2139 33.5083H31.8592L32.071 33.2822C32.3705 32.9623 32.3507 32.5015 32.0261 32.2454C31.776 32.048 31.6687 32.0429 27.7749 32.0429H23.7802L23.0534 31.2581C21.1521 29.2051 18.7282 28.2756 15.9726 28.543ZM17.953 30.0413C19.0494 30.1616 20.8614 31.0395 21.5631 31.7903L21.7992 32.0429H21.1624C20.6656 32.0429 20.4691 32.0875 20.269 32.2454C19.9474 32.4991 19.9171 33.022 20.2071 33.3129C20.382 33.4884 20.5317 33.5083 21.6732 33.5083H22.9446L23.1865 34.0569C23.3195 34.3587 23.4917 34.8752 23.5692 35.2048C23.8156 36.2529 24.2017 36.146 20.1692 36.146C16.8258 36.146 16.6125 36.1565 16.3956 36.3327L16.1657 36.5194L16.1378 40.0938L16.1101 43.6683H15.8391C15.0715 43.6683 13.4057 42.9148 12.4821 42.1498C11.4434 41.2896 10.5835 39.9383 10.2156 38.5883C9.9495 37.6118 9.97073 35.9144 10.2607 34.9737C10.6405 33.7418 11.1091 32.9607 12.0251 32.0331C13.2273 30.8154 14.4826 30.1822 16.0506 30.0023C16.7383 29.9234 16.9117 29.927 17.953 30.0413ZM31.129 36.3169C31.0183 36.4109 30.8994 36.6077 30.8649 36.7541C30.8143 36.9681 30.8608 37.0792 31.1012 37.3204L31.4004 37.6205L33.9928 37.5915C36.5836 37.5625 36.5851 37.5624 36.7711 37.3319C37.023 37.0195 37.0068 36.6176 36.7318 36.3584C36.512 36.1514 36.4415 36.146 33.9184 36.146C31.5954 36.146 31.3098 36.1635 31.129 36.3169ZM23.7129 37.7843C23.7129 38.1562 23.2934 39.4474 22.976 40.0521C22.7923 40.4022 22.4719 40.8863 22.2641 41.1278L21.8862 41.5669L21.5793 40.8835C21.4106 40.5077 21.1997 40.1453 21.1107 40.0781C20.8683 39.895 20.4269 39.9309 20.2071 40.1513C19.9278 40.4315 19.9648 40.8151 20.3578 41.7116C20.5478 42.145 20.676 42.5439 20.6427 42.5979C20.4462 42.9169 18.4727 43.6683 17.8315 43.6683H17.5778V40.6398V37.6114H20.6453C23.5152 37.6114 23.7129 37.6225 23.7129 37.7843ZM31.0238 40.018C30.7611 40.3531 30.7691 40.5671 31.0568 40.903L31.2917 41.1771L33.6131 41.2073C34.8899 41.2238 36.0795 41.2104 36.2565 41.1774C36.9032 41.0569 37.1839 40.3789 36.7623 39.956C36.577 39.7701 36.4378 39.7606 33.8966 39.7606H31.2256L31.0238 40.018Z" fill="#004333"/>
</svg>
