<svg width="251" height="190" viewBox="0 0 251 190" fill="none" xmlns="http://www.w3.org/2000/svg">
<path d="M85.9 100V43.4L95 43.6L69.7 74.6L67.3 71.6H113.7V85.6H59.7L52.9 72.5L88.6 29.4H102.3V100H85.9ZM150.911 101C144.644 101 139.278 99.5667 134.811 96.7C130.411 93.8333 127.044 89.7333 124.711 84.4C122.378 79 121.211 72.5333 121.211 65C121.211 57.4667 122.378 51.0333 124.711 45.7C127.044 40.3 130.411 36.1667 134.811 33.3C139.278 30.4333 144.644 29 150.911 29C157.178 29 162.544 30.4333 167.011 33.3C171.478 36.1667 174.878 40.3 177.211 45.7C179.544 51.0333 180.711 57.4667 180.711 65C180.711 72.5333 179.544 79 177.211 84.4C174.878 89.7333 171.478 93.8333 167.011 96.7C162.544 99.5667 157.178 101 150.911 101ZM150.911 86.6C155.244 86.6 158.578 84.7333 160.911 81C163.311 77.2667 164.511 71.9333 164.511 65C164.511 57.8667 163.311 52.4 160.911 48.6C158.578 44.7333 155.244 42.8 150.911 42.8C146.578 42.8 143.211 44.7333 140.811 48.6C138.478 52.4 137.311 57.8667 137.311 65C137.311 71.9333 138.478 77.2667 140.811 81C143.211 84.7333 146.578 86.6 150.911 86.6ZM219.591 100V43.4L228.691 43.6L203.391 74.6L200.991 71.6H247.391V85.6H193.391L186.591 72.5L222.291 29.4H235.991V100H219.591Z" fill="white"/>
<path d="M41.3022 77.1895L40.981 78.7929L43.1575 79.2249C44.2523 79.4343 45.3734 79.5259 45.3734 79.5259L45.5766 77.9028C44.8575 77.8405 44.1421 77.7422 43.4329 77.6083L41.3022 77.1895Z" fill="#FBE366"/>
<path d="M49.2217 67.4252C49.2217 67.4252 51.7064 64.539 54.8925 64.6372C57.7443 64.7158 54.9318 67.3533 51.0901 69.7748L49.2217 67.4252Z" fill="#F7B2A0"/>
<path d="M13.938 75.1936C11.4467 75.6451 10.6076 77.7067 11.8204 80.9267C13.6692 85.8679 23.7324 88.7018 32.4911 87.9164C42.4429 87.0198 51.6867 69.5913 51.6867 69.5913C51.6867 69.5913 52.0014 67.2745 49.7199 66.8818C49.7199 66.8818 39.8402 77.3533 29.9802 78.3546C25.1551 78.8717 19.1958 74.2446 13.938 75.1936Z" fill="#EDA503"/>
<path d="M24.9125 76.2934C29.0427 79.4414 32.5567 87.1183 34.2088 112.224C34.5628 117.741 2.49142 119.076 2.37342 113.533C2.08496 98.8005 4.60897 92.7467 8.8244 79.4676C10.0045 75.868 16.7636 70.0105 24.9125 76.2934Z" fill="#FFB502"/>
<path d="M56.125 90.0499C56.125 90.0499 61.1993 83.7016 60.9108 86.542C60.6223 89.3824 61.7499 91.0447 57.5148 92.707L56.125 90.0499Z" fill="#F7B2A0"/>
<path d="M24.8732 77.7129C19.3008 78.5048 18.0027 81.5677 18.5927 84.9579C19.4843 90.1543 22.1788 98.381 31.3439 102.327C40.509 106.274 58.1312 92.6609 58.1312 92.6609C58.1312 92.6609 58.8786 90.4423 56.7283 89.6373C56.7283 89.6373 41.3744 97.6218 34.1498 92.3272C30.6621 89.7682 30.1573 76.9799 24.8732 77.7129Z" fill="#FFB502"/>
<path d="M6.13625 186.093C4.0646 184.666 4.05804 184.365 4.35961 183.671C4.63039 183.039 4.95271 182.431 5.32332 181.852L1.2259 180.582C0.867106 181.83 0.647249 183.114 0.570312 184.411C0.917774 184.686 3.69747 186.904 6.13625 186.093Z" fill="#FBC6B4"/>
<path d="M0.5573 184.411C0.546557 184.389 0.530883 184.369 0.511408 184.353C-0.753876 187.86 4.30726 188.482 7.10662 188.194C9.90598 187.906 6.13635 186.093 6.13635 186.093C3.69757 186.905 0.917873 184.686 0.5573 184.411Z" fill="#FFB502"/>
<path d="M0.000253889 180.196C-0.0390814 182.055 4.50414 183.854 5.35641 182.663C12.6662 172.447 18.2846 152.787 20.2251 144.835C20.3104 144.482 20.4021 144.181 20.4874 143.847C21.5822 140.352 22.795 140.712 25.5485 125.123C26.4532 120.083 25.6862 111.843 25.6862 111.843L18.7697 110.842L2.8914 108.414C-0.891346 114.402 0.878741 128.526 1.19342 134.344C1.48844 139.259 2.35381 147.093 2.29481 150.994C2.03258 164.607 0.183818 167.827 0.000253889 180.196Z" fill="#1C2745"/>
<path d="M27.9546 187.166C25.6272 186.145 25.5748 185.857 25.7321 185.104C25.8968 184.438 26.1026 183.782 26.3484 183.141L22.0936 182.644C21.9674 183.938 21.9871 185.242 22.1526 186.531C22.5394 186.741 25.6862 188.416 27.9546 187.166Z" fill="#FBC6B4"/>
<path d="M22.1526 186.544L22.0805 186.485C21.4839 190.183 26.5647 189.856 29.2919 189.064C32.0192 188.272 27.9808 187.166 27.9808 187.166C25.6862 188.416 22.5394 186.741 22.1526 186.544Z" fill="#FFB502"/>
<path d="M13.6034 137.198C14.7966 141.982 17.4517 146.916 17.4517 153.631C17.4517 167.29 18.7629 170.314 20.7755 182.513C20.9984 183.926 24.001 184.816 25.6203 184.476C25.8424 184.446 26.0538 184.363 26.2366 184.234C26.3716 184.175 26.4793 184.068 26.5382 183.933C31.8222 172.558 35.3755 153.173 35.8475 145.045C36.1228 140.234 35.9983 140.83 35.8475 123.676C35.8016 118.545 33.5595 110.587 33.5595 110.587L12.207 111.241C9.55843 117.891 12.2332 131.543 13.6034 137.198Z" fill="#27355C"/>
<path d="M25.6206 184.489C25.8426 184.46 26.0541 184.376 26.2369 184.247C29.4689 175.248 30.826 165.68 32.0454 157.414C33.0681 150.398 34.2023 142.42 34.2416 134.586C34.2416 126.006 32.8714 118.447 30.1114 112.105C30.0985 112.075 30.0798 112.048 30.0564 112.025C30.0329 112.002 30.0052 111.984 29.9747 111.972C29.9443 111.96 29.9117 111.954 29.8789 111.954C29.8461 111.955 29.8137 111.961 29.7836 111.974C29.7235 112.002 29.6755 112.05 29.6489 112.111C29.6223 112.171 29.6189 112.239 29.6394 112.302C32.3732 118.571 33.763 126.085 33.7368 134.586C33.7368 142.394 32.5764 150.346 31.5537 157.362C30.3343 165.7 28.9182 175.425 25.6206 184.489Z" fill="white"/>
<path d="M27.3184 78.5116C27.3184 78.5116 21.5624 85.7697 24.5518 98.2831C24.5518 98.2831 26.7087 106.196 33.6973 105.482L35.0085 117.119C35.0085 117.119 20.8215 123.166 1.06213 113.63C1.06213 113.63 -0.537505 94.9518 9.36842 78.2891C9.36842 78.2891 11.4466 75.1084 13.7805 74.3623C13.7805 74.3623 2.24219 93.6102 11.0467 95.3052C19.8513 97.0003 24.9124 76.293 24.9124 76.293L27.3184 78.5116Z" fill="#1C2745"/>
<path d="M16.3176 69.932C16.3176 69.932 14.8032 76.2934 16.0554 77.7856C17.3076 79.2778 23.9224 77.7856 23.634 75.3968C23.369 73.416 22.9459 71.4594 22.3687 69.5459L16.3176 69.932Z" fill="#FBC6B4"/>
<path d="M12.5874 63.3744C12.5874 68.9766 15.7277 73.5186 19.5956 73.5186C21.3329 73.5186 25.2009 73.9964 26.4269 72.4845C27.9282 70.6259 27.9413 65.8613 27.0824 62.8901C25.1157 56.0509 22.1852 53.793 18.3107 53.793C14.4362 53.793 12.5874 57.7656 12.5874 63.3744Z" fill="#FBC6B4"/>
<path d="M19.2219 74.1725C16.7831 74.2968 12.7119 73.4526 10.4633 68.4655C8.40471 63.8843 9.59132 56.3055 14.1936 53.9756C15.6586 53.2561 17.2642 52.8668 18.8966 52.8351C20.5291 52.8034 22.1486 53.1302 23.6406 53.7924C27.8757 55.8016 27.3315 58.3736 26.4727 58.7925C24.6895 59.6695 23.2866 58.2755 23.6406 60.7101C23.9159 62.5819 23.7717 66.7246 22.0278 66.9733C20.284 67.222 18.7958 67.2286 19.2219 69.7483C19.5366 71.6593 21.6738 74.0416 19.2219 74.1725Z" fill="#000644"/>
<path d="M22.6835 61.9933C22.6835 61.9933 32.2419 56.4565 29.5016 53.7274C27.2726 51.5087 19.7202 54.4407 19.7202 54.4407L22.6835 61.9933Z" fill="#EDA503"/>
<path d="M25.7713 57.0322C24.8535 62.1108 20.4873 64.8858 9.51275 67.8112C9.51275 67.8112 3.98615 57.9942 11.1124 52.7585C17.3929 48.1511 26.3745 53.6748 25.7713 57.0322Z" fill="#FFB502"/>
</svg>
