<svg width="74" height="44" viewBox="0 0 74 44" fill="none" xmlns="http://www.w3.org/2000/svg">
<path fill-rule="evenodd" clip-rule="evenodd" d="M43.4889 0.570684C42.0637 1.43938 41.7419 2.55418 41.7419 6.62222V10.1591H40.764C39.5171 10.1591 39.2019 10.7233 39.2019 12.956C39.2019 14.1634 39.0373 14.931 38.6385 15.5852C38.1054 16.4596 38.0749 17.0127 38.0741 25.8933L38.0729 35.2774H36.6618H35.2507L35.2495 25.8933C35.2487 17.0127 35.2182 16.4596 34.6851 15.5852C34.2863 14.931 34.1217 14.1634 34.1217 12.956C34.1217 10.7233 33.8065 10.1591 32.5596 10.1591C31.6285 10.1591 31.5817 10.1114 31.5817 9.16227C31.5817 7.68481 30.8897 6.29399 29.8347 5.65079C28.9815 5.13036 28.4236 5.08125 23.3971 5.08407C17.3365 5.08774 16.9115 5.18144 15.8559 6.74753C15.2844 7.59591 15.2125 8.04437 15.2125 10.7653V13.8281H13.6763C11.7913 13.8281 11.2613 14.4027 11.2613 16.4466V17.8106L6.04429 17.7567C2.18087 17.7169 0.715539 17.7959 0.396622 18.0606C0.0212582 18.3719 -0.0250272 19.8127 0.0393208 29.1762L0.113265 39.9342L1.03756 40.2062C1.64181 40.384 1.91049 40.6118 1.81369 40.8644C1.73213 41.0766 1.66552 41.358 1.66552 41.4898C1.66552 41.6216 1.3926 41.7701 1.05929 41.8194C0.214584 41.9453 -0.256172 42.7547 0.145439 43.3915C0.439238 43.8571 2.52914 43.8896 36.5864 43.957C77.4119 44.038 73.8033 44.2554 73.0057 41.7622C72.6281 40.5807 72.6211 40.3301 72.9575 40.051C73.282 39.7815 73.3515 37.8397 73.3515 29.0362C73.3515 18.6542 73.3354 18.3384 72.787 17.996C72.3572 17.7276 72.2225 17.3379 72.2225 16.363C72.2225 15.6589 72.0247 14.8003 71.7831 14.4555C71.3776 13.8763 71.1224 13.8283 68.4669 13.8323C66.8848 13.8348 65.4017 13.9559 65.1714 14.1015C64.9131 14.2647 64.6964 14.9945 64.6069 16.0023L64.4613 17.6381L62.7679 17.7793L61.0745 17.9204L61 26.5989L60.9252 35.2774H59.5183H58.1111V20.8711V6.46445L57.4183 5.77186C57.0373 5.39086 56.4658 5.07899 56.1482 5.07899C55.662 5.07899 55.5711 4.89921 55.5711 3.93597C55.5711 2.57507 55.0128 1.39564 53.9864 0.588182C53.2991 0.047715 52.8727 -0.00111037 48.8301 1.85404e-05C44.9077 0.000865225 44.3203 0.0635197 43.4889 0.570684ZM52.8738 2.88411C53.6158 3.94303 53.4346 4.73835 52.348 5.19245C51.8175 5.41428 51.2459 5.85202 51.078 6.16557C50.87 6.55448 50.7732 11.8172 50.7732 22.7482C50.7732 37.023 50.822 38.8148 51.2242 39.2594C51.6032 39.6779 51.6222 39.9186 51.3436 40.7631C51.0137 41.7627 51.0018 41.7686 49.3666 41.7686H47.7218L47.3165 40.5692C46.9468 39.475 46.9566 39.2955 47.4297 38.523C47.9083 37.741 47.9481 36.8666 47.9484 27.0928C47.9487 17.0122 47.9221 16.4652 47.3853 15.5852C46.9866 14.931 46.822 14.1634 46.822 12.956C46.822 10.7233 46.5068 10.1591 45.2599 10.1591H44.282V6.50425C44.282 3.321 44.3457 2.81214 44.7759 2.56152C45.0476 2.40319 46.8818 2.26998 48.8521 2.26518C52.2391 2.25728 52.4587 2.29086 52.8738 2.88411ZM28.4958 7.62893C28.8946 7.84229 29.0416 8.22273 29.0416 9.04007C29.0416 10.1286 29.0151 10.1591 28.0637 10.1591C26.8168 10.1591 26.5016 10.7233 26.5016 12.956C26.5016 14.1634 26.3371 14.931 25.9383 15.5852C25.4015 16.4652 25.3749 17.0122 25.3752 27.0928C25.3755 36.8666 25.4153 37.741 25.894 38.523C26.367 39.2955 26.3768 39.475 26.0071 40.5692L25.6018 41.7686H23.3804C21.4731 41.7686 21.1178 41.6916 20.8669 41.2228C20.4523 40.4478 20.4918 40.3575 21.2459 40.3575C21.6148 40.3575 22.061 40.1839 22.2371 39.9717C22.4663 39.6954 22.5363 36.5144 22.4832 28.7531L22.4093 17.9204L21.2804 17.7793L20.1515 17.6381L20.064 16.0944C19.9584 14.2285 19.6686 13.8281 18.4237 13.8281H17.4703V11.2098C17.4703 7.2149 17.2916 7.33682 23.1493 7.33682C25.9188 7.33682 28.1809 7.46044 28.4958 7.62893ZM55.7853 22.6477L55.8581 37.8175H54.4447H53.031V22.5616V7.30577L54.3716 7.39185L55.7122 7.47793L55.7853 22.6477ZM31.5817 13.1225C31.5817 13.7705 31.4781 13.8281 30.3117 13.8281C29.1452 13.8281 29.0416 13.7705 29.0416 13.1225C29.0416 12.4745 29.1452 12.4169 30.3117 12.4169C31.4781 12.4169 31.5817 12.4745 31.5817 13.1225ZM44.282 13.1225C44.282 13.7705 44.1784 13.8281 43.0119 13.8281C41.8455 13.8281 41.7419 13.7705 41.7419 13.1225C41.7419 12.4745 41.8455 12.4169 43.0119 12.4169C44.1784 12.4169 44.282 12.4745 44.282 13.1225ZM45.2698 16.6921C45.6598 17.0627 45.8077 36.0679 45.4284 37.0662C45.154 37.7875 45.0581 37.8175 43.0289 37.8175C41.228 37.8175 40.8718 37.7367 40.6229 37.2716C40.4377 36.9256 40.3308 33.172 40.3308 27.0242C40.3308 16.827 40.3646 16.5406 41.6008 16.3108C42.5017 16.1432 44.961 16.3989 45.2698 16.6921ZM17.7017 17.0031C17.6187 17.5873 17.4644 17.6381 15.7769 17.6381C14.0895 17.6381 13.9351 17.5873 13.8521 17.0031C13.766 16.3955 13.8487 16.3681 15.7769 16.3681C17.7051 16.3681 17.7878 16.3955 17.7017 17.0031ZM32.7007 16.9139C33.0987 17.6579 33.0987 36.5277 32.7007 37.2716C32.4518 37.7367 32.0956 37.8175 30.2947 37.8175C28.2856 37.8175 28.1673 37.7816 27.9057 37.0935C27.7471 36.6764 27.6305 32.4373 27.6305 27.0928C27.6305 21.7482 27.7471 17.5092 27.9057 17.092C28.1673 16.404 28.2856 16.3681 30.2947 16.3681C32.0956 16.3681 32.4518 16.4488 32.7007 16.9139ZM69.6317 17.0031C69.5566 17.5309 69.339 17.6528 68.3419 17.7248C67.2209 17.8061 67.1424 17.7646 67.1424 17.0898C67.1424 16.4209 67.237 16.3681 68.4322 16.3681C69.608 16.3681 69.7138 16.424 69.6317 17.0031ZM20.2926 28.9273V37.8175H11.2613H2.22998V28.9273V20.0371H11.2613H20.2926V28.9273ZM71.027 28.9978L71.1015 37.8175H67.1464H63.1912V28.9194V20.0213L67.0719 20.0997L70.9525 20.1782L71.027 28.9978ZM38.6586 38.6026C39.05 39.2912 39.0557 39.5261 38.7054 40.5765L38.308 41.7686H36.6618H35.0156L34.6182 40.5765C34.2679 39.5261 34.2736 39.2912 34.665 38.6026C35.0661 37.8973 35.2608 37.8211 36.6618 37.8211C38.0628 37.8211 38.2575 37.8973 38.6586 38.6026ZM60.9334 38.7708C60.9334 39.7984 61.2927 40.2472 62.2387 40.401C62.7363 40.482 62.7973 40.609 62.5966 41.1452C62.3674 41.7565 62.2291 41.7873 60.0438 41.7097C57.8038 41.6301 57.7253 41.6038 57.4756 40.8517C57.2834 40.2734 57.3494 39.7905 57.7349 38.954C58.2308 37.8784 58.3076 37.8318 59.5928 37.8248C60.9289 37.8175 60.9334 37.8206 60.9334 38.7708ZM18.2662 41.1336L18.3562 41.7686H11.281C7.17235 41.7686 4.20557 41.66 4.20557 41.5096C4.20557 40.3516 4.25327 40.3442 11.364 40.423L18.1759 40.4986L18.2662 41.1336ZM32.1462 40.6166C32.1462 40.7591 32.2232 41.0766 32.3175 41.3222C32.4645 41.7054 32.1809 41.7686 30.3117 41.7686C28.4425 41.7686 28.1588 41.7054 28.3059 41.3222C28.4001 41.0766 28.4772 40.7591 28.4772 40.6166C28.4772 40.4741 29.3027 40.3575 30.3117 40.3575C31.3206 40.3575 32.1462 40.4741 32.1462 40.6166ZM44.8464 40.6166C44.8464 40.7591 44.9235 41.0766 45.0177 41.3222C45.1648 41.7054 44.8811 41.7686 43.0119 41.7686C41.1427 41.7686 40.8591 41.7054 41.0061 41.3222C41.1004 41.0766 41.1775 40.7591 41.1775 40.6166C41.1775 40.4741 42.003 40.3575 43.0119 40.3575C44.0209 40.3575 44.8464 40.4741 44.8464 40.6166ZM55.0066 40.6166C55.0066 40.7591 55.0837 41.0766 55.1779 41.3222C55.3123 41.6721 55.1534 41.7686 54.4422 41.7686C53.731 41.7686 53.5721 41.6721 53.7064 41.3222C53.8007 41.0766 53.8777 40.7591 53.8777 40.6166C53.8777 40.4741 54.1317 40.3575 54.4422 40.3575C54.7526 40.3575 55.0066 40.4741 55.0066 40.6166ZM70.2769 41.1336C70.5091 41.7638 70.4911 41.7686 67.839 41.7686C65.4361 41.7686 65.1668 41.7164 65.1668 41.2513C65.1668 40.419 65.442 40.3321 67.8034 40.4176C69.8315 40.491 70.0649 40.5585 70.2769 41.1336Z" fill="#004333"/>
</svg>
