<svg width="57" height="44" viewBox="0 0 57 44" fill="none" xmlns="http://www.w3.org/2000/svg">
<path fill-rule="evenodd" clip-rule="evenodd" d="M11.8099 0.288221C11.4709 0.446079 11.0361 0.761919 10.8438 0.990086C10.2392 1.70699 10.1287 2.12774 10.1244 3.72821C10.1201 5.32856 10.2452 5.76179 10.8362 6.1922C11.1304 6.40655 11.1524 6.49997 11.2238 7.83106C11.2863 8.99819 11.2647 9.31598 11.0987 9.66569C10.755 10.3901 10.5761 10.442 8.14661 10.5228C6.31699 10.5836 5.83596 10.6393 5.29587 10.8521C3.8925 11.4056 2.85695 12.4893 2.3171 13.9701C2.10568 14.55 1.97228 14.7294 1.61634 14.9124C1.03088 15.2137 0.572833 15.7142 0.26971 16.3838C-0.0899035 17.1782 -0.0899035 19.3799 0.26971 20.1743C0.576134 20.8511 1.03173 21.3449 1.63798 21.6567L2.09908 21.8938L2.09126 26.9218L2.08343 31.9499L1.56168 32.2808C0.899188 32.7009 0.333783 33.3846 0.154771 33.982C-0.0191059 34.5624 -0.0264426 36.5877 0.143154 37.1982C0.323878 37.8491 0.971208 38.6413 1.56266 38.9355C1.9927 39.1494 2.09285 39.2729 2.21402 39.7385C2.42287 40.5416 3.04709 41.6466 3.6312 42.2477C4.25028 42.8847 4.85249 43.2734 5.82337 43.6628L6.55702 43.957L27.9553 43.9916C43.1832 44.0163 49.5882 43.9874 50.1671 43.891C51.342 43.6954 52.3637 43.1675 53.2151 42.3161C53.9469 41.5843 54.5959 40.4524 54.7483 39.6419C54.8057 39.3368 54.9335 39.1837 55.2763 39.0088C55.8679 38.707 56.557 37.9351 56.7664 37.3396C56.8682 37.0499 56.9334 36.3411 56.9339 35.52C56.9345 34.2451 56.9149 34.1399 56.5588 33.5024C56.299 33.0377 55.9875 32.6994 55.5501 32.4077L54.9172 31.9856V26.9607V21.9357L55.5501 21.5136C55.9869 21.2222 56.2979 20.8849 56.554 20.4248C56.9035 19.797 56.9253 19.6795 56.9296 18.4072C56.9324 17.5656 56.8711 16.8774 56.7669 16.5818C56.5563 15.9844 55.8672 15.214 55.2722 14.9104C54.9315 14.7366 54.7941 14.5758 54.731 14.2773C54.5842 13.5833 53.929 12.495 53.3082 11.9144C52.979 11.6065 52.3397 11.1808 51.8876 10.9684C51.0842 10.591 51.0153 10.5807 48.8645 10.5159C45.7642 10.4225 45.7465 10.4082 45.7465 8.00372V6.40312L46.1246 6.1236C46.6829 5.7108 46.847 5.19394 46.847 3.84743C46.847 2.18228 46.6901 1.67287 45.9399 0.903025C45.0946 0.0354763 44.8166 -0.0234603 41.7848 0.0223932L39.3068 0.0599319L38.7088 0.429939C38.3391 0.658718 37.9694 1.02848 37.7406 1.398C37.3822 1.97698 37.3694 2.04949 37.3306 3.6941L37.2907 5.39239L37.8503 5.95205L38.4099 6.51158V7.91372C38.4099 10.3466 38.2675 10.4571 35.1433 10.4458C32.1284 10.4348 32.0516 10.372 32.0516 7.9147V6.40312L32.4163 6.13338C33.08 5.64281 33.181 5.27806 33.1297 3.55849C33.0786 1.84443 32.9779 1.53923 32.2211 0.804104C31.4436 0.0491714 31.0857 -0.0201588 28.1842 0.022271L25.6119 0.0599319L25.0139 0.429939C24.6439 0.658962 24.2747 1.02824 24.0457 1.39837C23.6932 1.96842 23.6737 2.07003 23.6332 3.54871C23.586 5.27831 23.6873 5.6433 24.3503 6.13338L24.715 6.40312V8.01435C24.715 9.45244 24.6881 9.65982 24.465 9.94363C24.1104 10.3943 23.5336 10.5134 21.7193 10.511C19.839 10.5083 19.2478 10.3946 18.8763 9.96392C18.6216 9.66863 18.6012 9.52752 18.6012 8.06217V6.47942L19.0815 5.99912C19.6547 5.42589 19.7627 4.92689 19.6749 3.25598C19.606 1.94445 19.3549 1.34481 18.6064 0.704082C17.8732 0.0765611 17.4518 -0.00132819 14.7965 1.68471e-05C12.5673 0.00111733 12.3896 0.0182353 11.8099 0.288221ZM17.4287 2.33145C17.707 2.66221 17.7453 2.81726 17.7453 3.61535V4.52301H14.9329H12.1206V3.49259C12.1206 2.52489 12.1403 2.44664 12.4428 2.20869C12.7413 1.9738 12.9247 1.95521 14.9386 1.95521H17.1121L17.4287 2.33145ZM30.8955 2.2554C31.1645 2.52428 31.1956 2.65781 31.1956 3.5393V4.52301H28.3833H25.5709V3.5393C25.5709 2.65781 25.6021 2.52428 25.8711 2.2554C26.1677 1.95876 26.1977 1.95521 28.3833 1.95521C30.5689 1.95521 30.5989 1.95876 30.8955 2.2554ZM44.5407 2.189C44.7959 2.39553 44.8344 2.54458 44.8726 3.4729L44.9156 4.52301H42.0908H39.2659V3.5393C39.2659 2.65781 39.297 2.52428 39.5661 2.2554C39.8623 1.959 39.8938 1.95521 42.0591 1.95521C44.0361 1.95521 44.2805 1.9782 44.5407 2.189ZM16.6448 8.3747C16.707 10.2437 16.7448 10.4041 17.3003 11.1582L17.5493 11.4962L16.9841 12.0753C16.3581 12.7168 15.8377 13.6152 15.7157 14.2649C15.66 14.5619 15.5461 14.7238 15.3373 14.8031C14.7806 15.0148 14.2401 15.5243 13.888 16.1693C13.5908 16.7133 13.5294 16.9849 13.4868 17.9426C13.4039 19.8052 13.8274 20.8555 14.9408 21.5475L15.5443 21.9228V26.9764V32.0301L15.0671 32.2737C14.4146 32.6065 13.8624 33.3105 13.6296 34.1059C13.3576 35.0352 13.4509 36.9191 13.8025 37.5987C14.0971 38.1679 14.7038 38.7706 15.2692 39.0555C15.5119 39.1778 15.6666 39.348 15.6666 39.4926C15.6666 39.8325 16.1078 40.9037 16.4632 41.4268C16.6304 41.6728 16.7671 41.9195 16.7671 41.9753C16.7671 42.0311 14.5248 42.0596 11.7843 42.0386C6.35722 41.9972 6.41188 42.0039 5.43587 41.2595C5.00228 40.9287 4.38075 40.089 4.24234 39.6468L4.15613 39.3717H7.78101H11.4058L11.7632 39.0143C12.1782 38.5993 12.22 38.1767 11.887 37.7651L11.6534 37.4764L7.10751 37.4153L2.56153 37.3541L2.2666 37.011C2.00346 36.705 1.97167 36.5526 1.97167 35.5974C1.97167 33.9007 1.75047 33.9915 5.88035 33.9915H9.2905L9.54386 33.6693C9.96901 33.1289 9.86447 32.5061 9.29943 32.214C9.02957 32.0745 8.4144 32.0351 6.502 32.0351H4.05036V27.0324V22.0298L6.28104 22.0208C8.25727 22.0129 8.5467 21.9859 8.81827 21.784C9.26458 21.4524 9.30053 20.767 8.89311 20.3595L8.5857 20.0521H5.71246C3.86707 20.0521 2.73247 20.0035 2.54111 19.9163C2.10801 19.719 1.97167 19.3089 1.97167 18.2028C1.97167 17.2719 1.99099 17.2016 2.34363 16.8489L2.7156 16.477L4.6088 16.5656C5.6501 16.6144 7.47312 16.6139 8.66005 16.5645C10.695 16.4797 10.8344 16.4584 11.1025 16.1902C11.4126 15.8801 11.4717 15.3427 11.2302 15.0281C10.8772 14.5682 10.5814 14.5253 8.3941 14.6158C7.23174 14.664 5.80784 14.6638 5.22972 14.6158L4.17863 14.5282L4.409 14.0803C4.6829 13.548 5.17396 13.0711 5.76223 12.7662C6.10986 12.586 6.61449 12.5296 8.4523 12.4657C11.0685 12.3747 11.5234 12.2365 12.3682 11.2768C13.0422 10.5111 13.2321 9.79482 13.2186 8.06901C13.2125 7.29562 13.2106 6.62004 13.2143 6.56771C13.218 6.51537 13.9777 6.48786 14.9024 6.50657L16.5837 6.54056L16.6448 8.3747ZM30.1169 8.283C30.1553 9.85094 30.196 10.1525 30.4287 10.5913C30.7841 11.2618 31.6673 12.0231 32.3195 12.2211C32.6093 12.3093 33.8093 12.4175 34.9862 12.4618C36.8475 12.5318 37.1917 12.5767 37.6303 12.807C38.1547 13.0822 38.6621 13.6064 38.9581 14.1788L39.1306 14.5124L37.4671 14.5922C36.5521 14.636 35.1559 14.6719 34.3643 14.6719C32.9553 14.6719 32.92 14.6786 32.6719 14.9941C32.3383 15.4182 32.3516 15.8037 32.7144 16.2241L33.0105 16.5672H36.8675C40.715 16.5672 40.7254 16.5679 41.0033 16.8449C41.2355 17.0765 41.2888 17.2798 41.3234 18.0676C41.3706 19.1412 41.2434 19.5856 40.8075 19.8712C40.5465 20.0423 40.039 20.0705 37.1769 20.0735L33.8496 20.077L33.5547 20.3719C33.1567 20.7699 33.2023 21.4573 33.6489 21.7891C33.9322 21.9997 34.2167 22.024 36.6141 22.0427L39.2659 22.0633V27.6376C39.2659 33.0681 39.2722 33.2186 39.5138 33.4779C39.6502 33.6242 39.9115 33.7746 40.0947 33.8119C41.0631 34.0095 41.3402 34.4105 41.3427 35.6178C41.3447 36.4983 41.1441 37.0663 40.7683 37.2449C40.6481 37.302 39.4031 37.3775 38.0015 37.4126C35.5071 37.4751 35.4483 37.4825 35.2198 37.7651C34.8945 38.1671 34.9221 38.7074 35.2864 39.0715C35.5766 39.3618 35.6434 39.3717 37.3039 39.3717C39.2896 39.3717 39.321 39.3961 38.6123 40.3931C38.1283 41.0738 37.5973 41.4884 36.8301 41.7844C36.3152 41.9831 35.6291 42.0006 28.3222 42.0006H20.3742L19.6935 41.6814C18.9082 41.3131 18.235 40.6688 17.8748 39.9411L17.6233 39.4328L22.6472 39.3717L27.671 39.3105L27.9773 38.9544C28.3387 38.5341 28.2978 37.9759 27.8803 37.6292C27.643 37.4323 27.1753 37.4153 22.0054 37.4153C15.8424 37.4153 15.8485 37.416 15.548 36.6905C15.4547 36.4653 15.4129 35.9662 15.4409 35.4117C15.5205 33.8351 14.4435 33.9915 25.2231 33.9915C34.3341 33.9915 34.5014 33.9873 34.7417 33.747C35.0796 33.409 35.0728 32.6404 34.7288 32.3292C34.4818 32.1056 34.1337 32.0949 25.9861 32.0632L17.5007 32.0302V27.0397V22.049L23.746 22.0458C29.7854 22.0426 30.002 22.0345 30.3183 21.7994C30.7946 21.4453 30.8303 20.7761 30.3961 20.3419L30.0711 20.0169L26.0786 20.0645C23.8827 20.0907 20.7549 20.0987 19.1277 20.0821C16.1969 20.0523 16.1661 20.0493 15.8263 19.757C15.4948 19.4719 15.4832 19.4221 15.4832 18.293C15.4832 17.2397 15.5107 17.0967 15.7617 16.8457L16.0403 16.5672L20.1238 16.5666L24.2074 16.5661L24.5223 16.2702C24.9059 15.9098 24.9409 15.3158 24.6031 14.8995L24.3689 14.6108H21.1291C19.3472 14.6108 17.8455 14.5674 17.7921 14.5143C17.6378 14.3611 18.1176 13.5876 18.6076 13.1996C19.3347 12.6236 19.6415 12.5578 21.9698 12.4774C24.0696 12.405 24.2114 12.3845 24.8874 12.0537C25.6233 11.6938 26.2155 11.0283 26.5093 10.2313C26.5912 10.009 26.6568 9.12047 26.6621 8.16072L26.6714 6.47942H28.372H30.0728L30.1169 8.283ZM43.7901 8.22846C43.7901 9.86293 43.8107 10.0188 44.1053 10.6099C44.4646 11.331 44.9533 11.7885 45.7465 12.1467C46.2055 12.3539 46.6614 12.4082 48.4977 12.4746C49.7082 12.5184 50.8087 12.5996 50.9432 12.6551C51.7537 12.9898 52.9208 14.265 52.6566 14.5271C52.6101 14.5731 51.1277 14.6108 49.3622 14.6108C45.9243 14.6108 45.852 14.623 45.6163 15.2431C45.555 15.4041 45.5613 15.6615 45.6312 15.862C45.8654 16.5339 45.9426 16.5453 50.3766 16.5611L54.4565 16.5755L54.6868 16.8601C54.8761 17.0937 54.9172 17.3504 54.9172 18.2981C54.9172 19.36 54.8934 19.4757 54.617 19.7519L54.3169 20.0521H51.4437C49.5686 20.0521 48.4651 20.1 48.2672 20.1902C47.8988 20.358 47.6475 20.9152 47.7522 21.3321C47.9044 21.9389 48.1989 22.0082 50.6778 22.0205L52.9608 22.0316V27.0334V32.0351H50.3836H47.8064L47.4489 32.3925C47.2523 32.5892 47.0915 32.8395 47.0915 32.9489C47.0915 33.251 47.4244 33.83 47.6473 33.9156C47.7561 33.9573 49.3358 33.9915 51.1576 33.9915C54.0682 33.9915 54.4971 34.0161 54.6936 34.1939C54.8795 34.3622 54.9172 34.5869 54.9172 35.5289C54.9172 37.5251 55.218 37.4153 49.7496 37.4153C45.5672 37.4153 45.4171 37.4235 45.1582 37.6646C44.7359 38.0581 44.7586 38.6907 45.2098 39.0966C45.5123 39.3687 45.5544 39.3717 49.1159 39.3717C51.5266 39.3717 52.7162 39.4137 52.7162 39.4989C52.7162 39.7751 52.2235 40.5568 51.779 40.9858C51.5211 41.2347 51.0349 41.5648 50.6987 41.7195C50.0968 41.9962 50.0088 42.0012 45.0434 42.0374C42.2693 42.0577 39.9995 42.0292 39.9995 41.9741C39.9995 41.9191 40.1459 41.6585 40.3249 41.3952C40.5038 41.1318 40.7717 40.5686 40.9203 40.1437C41.0983 39.6342 41.3102 39.2808 41.5425 39.1062C42.8866 38.0963 43.1966 37.5297 43.2743 35.94C43.3666 34.0519 42.8563 32.8638 41.6995 32.2737L41.2223 32.0301V26.9698V21.9094L41.7777 21.5839C42.9251 20.9115 43.3811 19.7673 43.2713 17.8364C43.2225 16.9795 43.1458 16.6622 42.8619 16.1403C42.5014 15.4782 42.0203 15.0279 41.4358 14.8056C41.2146 14.7216 41.1 14.589 41.1 14.4173C41.1 13.9864 40.414 12.6857 39.8845 12.1119C39.6114 11.8163 39.3881 11.5523 39.3881 11.5254C39.3881 11.4985 39.5304 11.29 39.7041 11.0621C40.2062 10.4039 40.3664 9.66056 40.3664 7.98843V6.47942H42.0782H43.7901V8.22846ZM26.9552 14.6885C26.6103 14.8636 26.3907 15.4023 26.495 15.8176C26.6436 16.41 26.9434 16.5061 28.6415 16.5061C29.9726 16.5061 30.23 16.4739 30.4729 16.2773C30.8549 15.9679 30.8601 15.2603 30.4831 14.8832C30.2349 14.635 30.078 14.6082 28.7163 14.582C27.8085 14.5647 27.1171 14.6065 26.9552 14.6885ZM29.3615 37.6598C28.9898 38.0315 28.9957 38.6769 29.3742 39.066C29.581 39.2784 29.8051 39.3159 31.0821 39.3515C32.6822 39.396 33.0251 39.2949 33.2971 38.6982C33.474 38.3097 33.243 37.7405 32.8323 37.5534C32.661 37.4753 31.8935 37.4153 31.0676 37.4153C29.7691 37.4153 29.5788 37.4425 29.3615 37.6598Z" fill="#004333"/>
</svg>
