<svg width="437" height="466" viewBox="0 0 437 466" fill="none" xmlns="http://www.w3.org/2000/svg">
<path d="M49.2418 280.983C63.2208 285.738 76.1641 290.256 89.2366 294.655C113.958 303.096 138.68 311.656 163.402 320.216C165.861 321.048 168.32 322.831 170.132 324.614C185.664 339.594 201.067 354.812 216.598 369.792C216.987 370.267 217.504 370.505 218.411 371.219C236.79 356.476 254.134 340.902 269.407 322.594C263.324 320.454 258.017 318.432 252.581 316.649C211.292 302.382 170.002 288.116 128.713 273.849C97.2612 263.031 65.6798 252.093 34.2276 241.274C31.1213 240.204 30.7293 236.958 30.0821 233.867C21.9278 204.264 18.9516 183.495 13.1272 153.06C10.7974 137.961 8.47062 119.151 6.27026 103.696C1.87278 72.8074 0.0574183 41.9195 0.0574183 5.72194C0.0574183 5.00857 -0.0718696 1.30776 0.0575634 0C1.48132 0.47555 9.66962 4.05594 10.7051 4.41257C41.769 15.588 67.2331 25.4934 98.2969 36.6689C133.244 49.2709 168.191 61.8731 203.008 74.4749C215.304 78.9931 227.083 77.2093 238.99 72.8106C284.421 56.2853 329.982 39.9978 375.412 23.5913C394.569 16.6958 413.854 9.80032 433.01 2.78594C433.916 2.42926 434.952 2.19151 435.858 1.95369C441.294 87.1962 426.927 169.942 401.299 251.736C393.404 249.002 385.508 246.149 377.613 243.414C361.822 237.827 346.161 232.239 330.37 226.77C327.652 225.819 326.746 224.749 327.393 221.896C332.829 198.951 338.265 176.124 342.925 153.06C345.384 141.052 346.29 128.807 347.843 116.68C347.972 115.61 347.843 114.421 347.843 112.519C341.76 114.778 336.194 116.68 330.758 118.701C295.682 131.898 260.606 145.094 225.659 158.41C222.164 159.717 219.057 159.956 215.304 158.647C174.792 144.857 134.279 131.184 93.7665 117.394C92.084 116.799 90.4016 116.442 87.9425 115.729C89.1074 122.268 90.0133 128.212 91.049 134.157C93.508 148.423 96.2262 162.69 98.556 176.956C99.0735 180.047 100.368 181.712 103.603 182.782C129.232 191.698 154.859 200.852 180.487 209.888C217.116 222.847 253.875 235.924 290.504 248.883C321.827 259.94 353.02 271.115 384.343 282.053C387.061 283.004 387.579 283.955 386.544 286.452C375.412 313.558 361.175 339.119 342.795 362.659C329.075 380.135 312.638 395.472 294.905 409.381C271.09 428.166 246.497 446.356 222.294 464.783C219.964 466.566 218.281 466.685 215.693 464.783C186.57 443.977 158.354 421.984 133.632 396.779C121.854 384.891 110.981 372.051 101.403 358.736C84.1887 334.72 68.2688 309.872 51.8305 285.382C51.0539 284.431 50.5362 283.123 49.2418 280.983Z" fill="#EF0000"/>
</svg>
