<svg width="75" height="44" viewBox="0 0 75 44" fill="none" xmlns="http://www.w3.org/2000/svg">
<path fill-rule="evenodd" clip-rule="evenodd" d="M24.3096 0.29721C23.1935 0.748101 22.1569 2.3033 22.1569 3.52691V4.63695L14.9959 4.74512C8.52643 4.84285 7.68463 4.92272 6.27737 5.57344C4.04145 6.60732 2.09972 8.49985 1.02102 10.6963C0.176861 12.4153 0.0841887 12.9545 0.0841887 16.1495C0.0841887 19.4762 0.152597 19.8338 1.1912 21.9437C2.37706 24.3521 3.86756 25.785 6.36835 26.9197C7.1751 27.2856 8.17596 27.5886 8.59315 27.5926C9.25196 27.599 9.35138 27.7769 9.35138 28.948V30.2959H5.01164C0.488575 30.2959 -0.353896 30.5494 0.114518 31.7696C0.258412 32.145 0.735251 32.3179 1.62726 32.3179H2.92972L2.09668 33.8845C-1.47674 40.6051 6.82396 47.2286 12.6114 42.2749L13.9091 41.1642L15.2066 42.2857C18.8029 45.394 24.3625 43.9821 26.0637 39.5281L26.6399 38.019L29.0116 38.1171C31.3483 38.2138 31.3874 38.2307 31.6516 39.2534C32.1847 41.3198 32.8445 41.5746 37.9455 41.6818C42.0592 41.7687 42.659 41.7077 43.6272 41.1052C44.3086 40.6806 44.8154 40.0211 44.996 39.3232L45.2828 38.2152L49.8675 38.1215L54.4522 38.0281L55.4096 39.9625C58.0466 45.2892 65.0772 45.3442 67.7131 40.0585L68.6324 38.2152L71.0816 38.0467C74.3743 37.8202 74.3784 37.8108 74.3871 30.2959L74.3942 24.3986L71.8105 18.3328C68.1144 9.65437 67.8111 9.40264 61.064 9.40264C56.8169 9.40264 56.8145 9.40298 55.8299 10.3877L54.8448 11.3727V20.8343V30.2959H48.7588H42.6725L42.7773 29.0912C42.8747 27.9673 42.9997 27.8464 44.6294 27.2967C48.253 26.0745 50.6679 23.7038 51.6468 20.407C52.3205 18.1381 52.2891 13.9581 51.5818 11.7683C50.8694 9.5617 48.5859 6.97262 46.288 5.76519C44.5987 4.87756 44.4299 4.85869 37.2372 4.74445L29.9077 4.62785V3.45479C29.9077 2.80946 29.7517 1.9899 29.5606 1.63337C28.8216 0.252054 26.1216 -0.435066 24.3096 0.29721ZM27.234 2.33768C27.6532 2.56211 27.8857 3.04266 27.8857 3.68563C27.8857 4.672 27.8622 4.6848 26.0323 4.6848C24.3332 4.6848 24.1792 4.62145 24.1839 3.92658C24.195 2.31476 25.7132 1.52385 27.234 2.33768ZM12.7213 8.21139C12.7213 9.3531 12.8783 9.79995 13.372 10.0642C14.3199 10.5713 15.0802 9.66617 15.0802 8.03076V6.70673H26.2008H37.3214V8.35562C37.3214 9.56743 37.4667 10.0601 37.8697 10.2148C38.7779 10.5636 39.3434 9.76591 39.3434 8.13657V6.61608L41.6517 6.78121C45.7155 7.07203 48.7639 9.39287 49.7509 12.9474C50.2193 14.6351 50.2311 17.9443 49.7745 19.5881C48.8205 23.0241 45.2808 25.5781 41.4735 25.5781H39.3434V19.3799C39.3434 14.1811 39.2618 13.1503 38.8379 12.9875C38.5599 12.881 38.1049 12.881 37.8269 12.9875C37.403 13.1503 37.3214 14.1811 37.3214 19.3799V25.5781H26.2008H15.0802V19.7452C15.0802 15.1928 14.9737 13.7687 14.5946 13.2581C14.2057 12.7348 13.987 12.6785 13.4994 12.9774C12.9531 13.312 12.8803 13.9884 12.7978 19.5008L12.7058 25.6509L10.2377 25.5262C7.1104 25.3685 4.97861 24.1712 3.46284 21.7213C2.54993 20.2456 2.43064 19.7374 2.32415 16.8659C2.18228 13.0411 2.53073 11.6972 4.15467 9.79995C5.98958 7.65603 7.9158 6.81019 11.1206 6.74111L12.7213 6.70673V8.21139ZM65.9746 11.9988C66.8713 12.6168 67.6224 13.46 67.6396 13.8677C67.6457 14.0066 65.925 14.1205 63.8161 14.1205C60.7988 14.1205 59.8919 14.2293 59.5576 14.632C58.9352 15.3822 59.2975 20.9108 60.0439 22.0498C61.2611 23.9076 62.3405 24.2274 67.3977 24.2288L72.0313 24.2301V26.0836C72.0313 27.87 71.9986 27.937 71.1261 27.937C68.8423 27.937 67.7768 31.127 69.4887 32.8385C69.9436 33.2935 70.7018 33.6658 71.1736 33.6658C71.9291 33.6658 72.0313 33.8064 72.0313 34.8453V36.0247L70.2621 36.0096L68.4929 35.9941L67.6504 34.2407C67.0903 33.0751 66.322 32.1511 65.3579 31.4838C64.019 30.5571 63.6375 30.4702 60.3873 30.3499L56.8668 30.2194V21.2266C56.8668 14.6812 56.977 12.1232 57.2712 11.829C57.537 11.5631 58.9544 11.4246 61.4084 11.4246C64.3749 11.4246 65.3127 11.5425 65.9746 11.9988ZM69.6663 18.7541C70.2705 20.1907 70.8387 21.5555 70.9286 21.787C71.054 22.1091 70.1819 22.2082 67.2265 22.2082C63.8256 22.2082 63.2537 22.1243 62.4726 21.5096C61.6658 20.8754 61.5846 20.5974 61.5846 18.4767V16.1424H65.0761H68.568L69.6663 18.7541ZM40.6913 28.948V30.2959H26.0323H11.3733V29.1728C11.3733 28.5547 11.4744 27.9481 11.5981 27.8248C11.7214 27.7011 18.318 27.6 26.2571 27.6H40.6913V28.948ZM72.0313 30.7718C72.0313 31.8158 70.9 31.7409 70.744 30.6865C70.6634 30.1409 70.8107 29.959 71.3337 29.959C71.8462 29.959 72.0313 30.1746 72.0313 30.7718ZM10.5827 33.1634C13.4549 35.0455 13.346 39.705 10.394 41.2316C6.27972 43.3593 1.8736 39.2703 3.83251 35.1422C5.04567 32.5861 8.26223 31.6429 10.5827 33.1634ZM14.4062 32.635C14.4062 33.2186 13.8131 33.3268 13.3922 32.8196C13.0454 32.4021 13.0957 32.3179 13.6911 32.3179C14.0844 32.3179 14.4062 32.4604 14.4062 32.635ZM21.4806 32.8618C24.094 33.9074 25.1221 36.5815 23.8897 39.1274C23.0284 40.9067 21.6909 41.7539 19.7461 41.7522C16.9387 41.7498 15.0802 39.8209 15.0802 36.9097C15.0802 35.1732 16.2091 33.5405 17.9277 32.792C19.2848 32.2009 19.857 32.2121 21.4806 32.8618ZM55.5481 34.1531L54.6763 35.9887L49.882 36.0065C45.1702 36.0244 45.0786 36.0106 44.5522 35.2075C43.7663 34.0082 42.3712 33.6658 38.2714 33.6658C34.2885 33.6658 32.5918 34.1133 31.9374 35.3359C31.5899 35.9853 31.3129 36.0433 28.982 35.9543C26.4138 35.8563 26.4097 35.8549 26.1385 34.8035C25.9888 34.2242 25.6384 33.5614 25.3597 33.3298C25.081 33.0987 24.8528 32.7762 24.8528 32.6138C24.8528 32.4483 31.8069 32.3179 40.6364 32.3179H56.4203L55.5481 34.1531ZM64.141 33.1482C66.1451 34.4615 66.814 37.035 65.7397 39.2993C64.2138 42.5151 59.0269 42.594 57.3888 39.4263C55.197 35.1883 60.1817 30.5541 64.141 33.1482ZM6.53921 35.6301C5.23877 37.0671 6.27939 39.3946 8.22246 39.3946C9.27892 39.3946 10.4547 37.796 10.1945 36.7132C9.79317 35.0431 7.64621 34.4069 6.53921 35.6301ZM18.1131 35.6878C17.2521 36.5488 17.2592 37.3902 18.1377 38.5067C19.4112 40.1256 21.82 39.2952 21.82 37.2372C21.82 35.2072 19.5449 34.2559 18.1131 35.6878ZM59.9182 35.9092C59.4687 36.4807 59.2877 37.0596 59.4174 37.5099C59.6776 38.41 60.8095 39.3946 61.5846 39.3946C62.3597 39.3946 63.4916 38.41 63.7518 37.5099C64.052 36.4696 62.7883 35.0138 61.5846 35.0138C60.9447 35.0138 60.3866 35.3137 59.9182 35.9092ZM42.9906 37.5277C43.149 39.4688 42.6031 39.7316 38.4143 39.7316C34.1942 39.7316 33.6146 39.4927 33.6146 37.7538C33.6146 37.0502 33.7197 36.3688 33.8484 36.2401C33.9772 36.1114 36.0624 36.0483 38.482 36.0996L42.8817 36.1932L42.9906 37.5277Z" fill="#004333"/>
</svg>
