<svg width="70" height="44" viewBox="0 0 70 44" fill="none" xmlns="http://www.w3.org/2000/svg">
<path fill-rule="evenodd" clip-rule="evenodd" d="M6.03638 0.184603C5.47466 0.435345 4.90151 1.07661 4.74187 1.63303C4.53954 2.33848 4.5632 22.0888 4.76676 22.4712C5.1445 23.1803 5.9072 23.3176 6.45043 22.7743L6.78425 22.4406V12.304V2.16756H27.7928H48.8013V12.1709C48.8013 19.5151 48.8433 22.253 48.9594 22.4712C49.3371 23.1803 50.0998 23.3176 50.6431 22.7743C50.9239 22.4936 50.9769 22.31 50.9769 21.6184V20.7965L57.6738 20.7973C61.7406 20.7977 64.5639 20.8517 64.8626 20.9346C65.5533 21.1265 66.188 21.5853 66.7106 22.2703C67.4402 23.2271 67.4157 23.2441 65.3164 23.2441C63.542 23.2441 63.4622 23.2563 63.1407 23.5779C62.8228 23.8957 62.8069 23.9907 62.8069 25.5678C62.8069 27.6622 62.9523 28.1579 63.8221 29.0277C64.6141 29.8196 65.2092 30.0429 66.5281 30.0429H67.4302V32.4905V34.9381H66.0316H64.633L64.2118 34.0882C61.6982 29.0156 54.396 29.0179 51.8816 34.0922C51.6039 34.6527 51.3874 34.9324 51.2517 34.9063C51.0734 34.872 51.0355 34.2628 50.9769 30.4877C50.9022 25.6831 50.9209 25.7825 50.0627 25.6107C49.6978 25.5379 49.5616 25.5902 49.2146 25.9372L48.8013 26.3506V30.6443V34.9381H37.5215H26.2418L25.9588 34.2985C24.7543 31.5757 21.7078 29.8984 18.7266 30.3168C16.576 30.6185 14.4105 32.184 13.5094 34.0885L13.1072 34.9386L9.97972 34.9044L6.85224 34.8701V33.6463V32.4225L9.46219 32.3857L12.0723 32.3487L12.3517 31.9934C12.7202 31.5249 12.7048 31.0955 12.3032 30.6284L11.9749 30.2469H6.30833H0.641749L0.3135 30.6284C-0.0889931 31.0963 -0.103407 31.5251 0.267268 31.9962L0.549013 32.3545H2.57888H4.60862L4.61161 33.7483C4.61392 34.808 4.67443 35.2725 4.86439 35.686C5.44868 36.9586 5.93154 37.1003 9.71117 37.1078L12.7059 37.1137L12.8717 38.1557C13.7845 43.8925 20.9001 46.0241 24.7897 41.726C25.5659 40.8682 26.3367 39.3072 26.4437 38.3762C26.4849 38.0184 26.5464 37.588 26.5804 37.4197L26.6421 37.1137H38.8492H51.0563L51.2683 38.2356C51.5447 39.6984 52.0534 40.7465 52.965 41.7311C54.4519 43.3372 55.8624 43.9541 58.0477 43.9541C60.2327 43.9541 61.6436 43.3372 63.13 41.7317C64.0638 40.7231 64.5421 39.7464 64.8179 38.2855L65.0355 37.1329L66.9929 37.0894L68.9501 37.0458L69.2839 36.6573L69.6178 36.2688L69.5778 29.6544C69.5389 23.2188 69.5298 23.0205 69.2416 22.3175C68.5714 20.6824 67.0354 19.2663 65.5072 18.8747C65.0484 18.7571 64.7737 18.6034 64.6962 18.4209C64.6316 18.269 64.2095 16.6581 63.7582 14.8409L62.9376 11.5369L63.3624 11.1795L63.7872 10.822L63.732 9.38429C63.6845 8.14798 63.6248 7.84598 63.3053 7.22809C62.8663 6.37946 62.0697 5.5451 61.3507 5.1815C60.3891 4.69484 59.5229 4.61515 55.197 4.61515H50.9996L50.9543 3.01742C50.9137 1.58898 50.8744 1.37114 50.5824 0.96185C50.4028 0.710156 50.0051 0.390201 49.6986 0.25096C49.1625 0.00756036 48.3242 -0.00195829 27.7928 0.000217347C10.2543 0.00212103 6.37156 0.0350279 6.03638 0.184603ZM60.3183 7.0966C60.8989 7.41411 61.442 8.14934 61.5395 8.74982L61.6188 9.23838H56.2978H50.9769V8.00765V6.77706L55.4302 6.81785C59.3647 6.85402 59.9341 6.88652 60.3183 7.0966ZM31.6405 15.4566L26.6341 20.4511L24.0179 17.8438C22.3523 16.184 21.2656 15.2038 21.0269 15.1461C20.2617 14.961 19.5335 15.8458 19.8407 16.5873C19.9236 16.7876 21.3851 18.3366 23.0885 20.0298C25.907 22.8312 26.2271 23.1081 26.6474 23.1081C27.0743 23.1081 27.5284 22.6889 32.652 17.5651C37.7001 12.5172 38.195 11.9824 38.195 11.576C38.195 10.98 37.6801 10.4622 37.0872 10.4622C36.6896 10.4622 36.1609 10.9469 31.6405 15.4566ZM61.5553 14.9834C62.023 16.8717 62.4042 18.4628 62.4024 18.5188C62.4005 18.5749 59.829 18.6208 56.6879 18.6208H50.9769V15.0854V11.55H55.8408H60.7047L61.5553 14.9834ZM67.4302 26.6435V27.8673H66.5648C65.8112 27.8673 65.6532 27.8211 65.341 27.5088C65.0288 27.1966 64.9826 27.0386 64.9826 26.285V25.4197H66.2064H67.4302V26.6435ZM2.69446 25.9531C2.20399 26.4436 2.18169 26.9485 2.63083 27.3975L2.96451 27.7313H10.3024C14.3382 27.7313 17.7393 27.6932 17.8603 27.6469C18.1082 27.5517 18.4783 26.9078 18.4783 26.5718C18.4783 26.4501 18.2995 26.1718 18.0808 25.9531L17.6834 25.5557H10.3877H3.09193L2.69446 25.9531ZM28.5825 30.3146C28.1165 30.5048 27.822 31.0526 27.9275 31.533C28.115 32.3868 27.7507 32.3545 37.1956 32.3545H45.79L46.0718 31.9962C46.4425 31.5251 46.428 31.0963 46.0256 30.6284L45.6974 30.2469L37.289 30.22C32.5861 30.2049 28.7492 30.2466 28.5825 30.3146ZM20.7219 32.5608C21.9014 32.7528 23.284 33.8325 23.9022 35.0442C24.5096 36.2348 24.5126 37.9837 23.9095 39.172C22.1111 42.7151 17.2001 42.7224 15.4585 39.1845C15.0563 38.3673 15.0114 38.1579 15.0163 37.1166C15.0208 36.138 15.0796 35.8383 15.3946 35.1876C16.0625 33.808 17.4475 32.7354 18.877 32.4904C19.4949 32.3846 19.684 32.3918 20.7219 32.5608ZM58.7991 32.5026C60.8895 32.8891 62.4857 34.5639 62.7456 36.6437C62.9211 38.0487 62.1578 39.8992 61.0361 40.7876C58.2932 42.9601 54.3514 41.6173 53.4842 38.215C52.8282 35.6421 54.6117 32.9473 57.2626 32.5057C57.6571 32.4401 57.9838 32.3791 57.9887 32.3704C57.9937 32.3617 58.3584 32.4212 58.7991 32.5026ZM18.5111 35.2015C16.8421 36.2487 17.2196 38.7247 19.1358 39.2988C20.2243 39.6248 21.6167 38.8027 21.821 37.7131C22.1142 36.1506 21.2963 35.0545 19.7734 34.9692C19.1284 34.9331 18.86 34.9824 18.5111 35.2015ZM56.9802 35.1687C55.631 35.8335 55.4361 37.9259 56.6356 38.8695C57.5706 39.6048 58.7842 39.532 59.6264 38.6897C60.4065 37.9096 60.4927 36.7051 59.8347 35.7812C59.2672 34.9839 57.9353 34.6982 56.9802 35.1687Z" fill="#004333"/>
</svg>
