<svg width="82" height="50" viewBox="0 0 82 50" fill="none" xmlns="http://www.w3.org/2000/svg">
<path fill-rule="evenodd" clip-rule="evenodd" d="M9.57743 0.223526C9.31622 0.339564 8.94785 0.603932 8.75899 0.810994C8.32714 1.28401 0 22.3629 0 22.983C0 23.6349 0.369799 24.4316 0.846613 24.8066C1.07204 24.9839 2.84378 25.7593 4.7838 26.5296C8.51314 28.0104 9.24641 28.1668 10.0352 27.6499C10.4277 27.3929 10.4684 27.4109 12.7758 28.8622C14.0641 29.6724 15.4149 30.5324 15.7776 30.773L16.4372 31.2105L16.1372 31.8711C15.6807 32.8768 15.7245 34.394 16.2401 35.4287C16.9474 36.8479 18.4718 37.8348 19.957 37.8348C20.5091 37.8348 20.5509 37.8699 20.6543 38.421C21.0056 40.2934 22.9822 41.9507 24.8638 41.9507C25.2361 41.9507 25.3135 42.0395 25.4647 42.6398C25.9069 44.3957 27.418 45.725 29.1635 45.8931L30.1437 45.9875L30.2672 46.5836C30.7081 48.7133 32.6698 50.1776 34.8208 49.9826C36.1962 49.8579 37.022 49.3633 38.273 47.9147L38.7903 47.3155L39.9977 48.1972C40.7246 48.728 41.5532 49.1802 42.0805 49.3334C44.6702 50.0863 47.4684 48.4276 48.0355 45.8034C48.1385 45.3267 48.1679 45.3096 48.6476 45.4472C50.0739 45.8562 51.9345 45.372 53.0331 44.3058C53.7874 43.5738 54.453 42.2679 54.4552 41.5154L54.4568 41.0009H55.3784C56.7886 41.0009 57.7216 40.6091 58.7427 39.5878C59.5716 38.759 60.1553 37.6472 60.1559 36.8964C60.156 36.6906 60.3821 36.6467 61.4619 36.6432C62.5073 36.6397 62.9033 36.5674 63.447 36.2804C65.4592 35.2188 66.5145 32.959 65.9619 30.8952L65.7356 30.0505L67.4969 28.908C70.4238 27.0096 70.1531 27.1196 70.8456 27.5477C71.8377 28.1608 72.3821 28.0579 76.2702 26.5217C78.2091 25.7558 79.9622 24.9979 80.166 24.8375C80.6383 24.4661 81.0519 23.5989 81.0519 22.9808C81.0519 22.4205 78.0098 14.6467 77.6235 14.2199C77.0285 13.5624 75.6696 14.073 75.6696 14.9541C75.6696 15.1686 76.3479 17.0667 77.1769 19.1719C78.006 21.2774 78.665 23.0153 78.6413 23.0341C78.5096 23.1389 72.3968 25.4888 72.2581 25.488C72.1185 25.4872 70.7955 22.2043 64.4975 6.22928L63.9889 4.9391L67.2391 3.65224C69.0266 2.94462 70.5109 2.38723 70.5373 2.41367C70.5638 2.44011 71.3081 4.29464 72.1915 6.53481C73.8312 10.693 74.0576 11.0813 74.8413 11.0813C75.2898 11.0813 75.9862 10.4194 75.9862 9.99297C75.9862 9.47548 72.6653 1.21546 72.2945 0.810678C71.8682 0.345421 71.0847 0 70.4556 0C69.7423 0 62.8539 2.78632 62.3299 3.28688C61.8743 3.72206 61.5483 4.61268 61.6188 5.23006C61.6557 5.55364 61.4603 5.6616 59.6017 6.345C56.8601 7.35277 56.4335 7.39409 53.3645 6.94815L50.8303 6.57993L50.4273 6.95859C49.9185 7.43651 49.899 8.12102 50.3804 8.60243C50.6799 8.90194 51.1503 9.01908 53.3287 9.33712C56.5332 9.80475 57.3844 9.71293 60.4413 8.56934C62.5309 7.78763 62.5485 7.78415 62.6823 8.1253C62.7565 8.31447 64.2813 12.1706 66.0709 16.6943C67.8604 21.218 69.3097 24.9289 69.2915 24.9406C69.2731 24.9521 68.1298 25.6865 66.7507 26.5724L64.2431 28.183L63.1124 27.3604C62.4904 26.9081 60.35 25.3316 58.3556 23.8571C56.3613 22.3827 54.508 21.0531 54.237 20.9022C53.8014 20.6598 53.5573 20.6469 52.1246 20.7892C48.3081 21.1685 44.4771 19.7966 41.4528 16.9677C39.326 14.9781 38.5533 15.0228 35.7528 17.297C33.5599 19.0778 31.2875 20.0987 29.5078 20.1028C28.5238 20.1052 27.839 19.884 26.9422 19.2741C25.8438 18.5273 25.9825 18.262 28.3637 16.5556C30.9276 14.7182 33.2058 12.8201 36.0926 10.116C37.3567 8.93202 38.6041 7.8557 38.8647 7.72447C39.7178 7.29436 40.3176 7.28818 42.8418 7.68347C45.987 8.17595 46.1222 8.17485 46.53 7.6564C46.9166 7.16502 46.9481 6.68932 46.6243 6.22723C46.3416 5.82339 46.3353 5.82181 43.0088 5.30716C40.7769 4.96174 40.2013 4.92201 39.447 5.061C38.1449 5.30099 37.1169 5.86218 35.8368 7.03173C35.2169 7.5983 34.6774 8.02952 34.638 7.99011C34.5986 7.95053 33.9968 7.77655 33.3011 7.60337C31.7735 7.22328 29.4364 7.00513 25.3715 6.86361C22.3529 6.75849 22.3149 6.7528 20.8598 6.17942C19.5262 5.65401 19.3964 5.56599 19.4376 5.21471C19.5 4.68249 19.0649 3.60206 18.6198 3.18382C18.1358 2.72933 11.2043 -0.00174112 10.5548 0.00617411C10.2784 0.00965681 9.83863 0.107331 9.57743 0.223526ZM13.8298 3.64765L17.0703 4.92074L16.5583 6.2201C10.3601 21.9497 8.93534 25.487 8.79857 25.487C8.66163 25.487 2.54047 23.1362 2.4105 23.0338C2.36016 22.9941 10.4788 2.37457 10.5448 2.37457C10.5692 2.37457 12.0475 2.94747 13.8298 3.64765ZM23.0333 9.12831C27.425 9.31796 30.7581 9.53278 31.7006 9.68666C32.6318 9.83879 32.7439 9.89261 32.5713 10.1044C32.1255 10.6517 28.3238 13.6975 26.5059 14.9637C24.3282 16.4805 23.904 17.044 23.904 18.4197C23.904 19.8433 24.7739 20.9138 26.7096 21.8725C27.5133 22.2704 27.9506 22.3748 29.0842 22.4392C31.9485 22.6021 34.338 21.5171 38.5506 18.1403L38.9277 17.8379L39.9394 18.7843C41.9521 20.6671 44.4397 22.0347 47.1559 22.7517C48.4356 23.0893 49.0597 23.1569 51.0662 23.1745L53.4536 23.1954L58.1592 26.6626C60.7471 28.5695 63.003 30.3055 63.1719 30.5202C64.647 32.3954 62.7567 35.0322 60.541 34.1898C60.3064 34.1005 58.8948 33.0912 57.4042 31.9468C55.9138 30.8024 54.5033 29.7932 54.27 29.7041C53.4241 29.3808 52.5799 30.1952 52.8101 31.1125C52.8721 31.3593 53.6796 32.0869 55.1188 33.1925C56.3363 34.1279 57.4334 35.0884 57.5567 35.3271C58.301 36.7665 57.1145 38.6263 55.4519 38.6263C54.5521 38.6263 54.5104 38.6021 51.5971 36.3852C49.9805 35.155 49.0008 34.5121 48.7477 34.5155C47.9381 34.5261 47.3861 35.3806 47.7065 36.1276C47.8075 36.363 48.7246 37.187 49.7868 37.9967C50.8316 38.7932 51.773 39.5989 51.8788 39.7875C51.9845 39.976 52.0735 40.4987 52.0766 40.9491C52.0811 41.6067 52.0005 41.8652 51.6676 42.2608C50.8689 43.21 49.7273 43.4788 48.7103 42.9574C48.4317 42.8144 47.3372 42.0319 46.278 41.2187C43.889 39.3843 43.7324 39.307 43.0831 39.6428C42.5192 39.9344 42.3026 40.5258 42.5561 41.0819C42.6498 41.2879 43.3686 41.9627 44.1534 42.5819C45.3302 43.51 45.5982 43.803 45.6827 44.2537C45.8504 45.1473 45.6202 45.9232 45.0196 46.4896C44.3823 47.0907 43.5804 47.2864 42.7604 47.0407C42.068 46.8331 40.4261 45.6409 40.4948 45.3956C40.5212 45.3014 40.6881 45.0399 40.8654 44.8144C41.6724 43.7886 41.9211 41.863 41.4045 40.6412C40.7946 39.1989 39.1017 37.9977 37.6744 37.9947L36.9598 37.9931L36.7684 37.1868C36.3632 35.4811 34.7961 34.1075 33.0499 33.9272L32.2058 33.8401L31.9402 32.9389C31.4404 31.243 29.8705 29.9853 28.1252 29.8827C27.4174 29.841 27.4031 29.8292 27.2296 29.1437C26.9922 28.2043 26.703 27.6772 26.0886 27.0628C24.8445 25.8185 22.85 25.4497 21.292 26.1755C20.5646 26.5143 19.9942 27.0321 18.4876 28.7215L17.9324 29.344L16.8419 28.6313C16.242 28.2392 14.8113 27.3287 13.6623 26.6078L11.5732 25.2972L11.8659 24.5611C12.1674 23.802 18.1286 8.73699 18.3681 8.12815C18.5014 7.78937 18.5134 7.79143 20.0554 8.42687C21.3874 8.97571 21.8115 9.0756 23.0333 9.12831ZM24.188 28.5708C24.4444 28.7867 24.743 29.1773 24.8514 29.4388C25.217 30.3213 24.9615 30.8444 23.1019 33.0188C22.1408 34.1426 21.1979 35.1491 21.0067 35.2555C20.5262 35.5226 19.7043 35.5069 19.1496 35.2201C18.5629 34.9168 18.205 34.2329 18.205 33.4156C18.205 32.8545 18.3491 32.6073 19.4319 31.3111C20.1067 30.5032 21.0189 29.4678 21.4593 29.0103C22.1983 28.2422 22.3159 28.1782 22.9906 28.1782C23.5375 28.1782 23.8388 28.277 24.188 28.5708ZM29.2457 32.8474C29.6849 33.3567 29.8252 33.8827 29.6997 34.5511C29.5773 35.2027 26.4815 38.9003 25.7101 39.3162C25.0083 39.6944 24.2285 39.5619 23.5408 38.9473C23.0879 38.5427 23.0333 38.4017 23.0333 37.6361C23.0333 36.7821 23.04 36.7705 24.5606 34.9715C26.4011 32.7942 26.7357 32.4725 27.3264 32.3128C27.9844 32.135 28.8355 32.372 29.2457 32.8474ZM33.9957 36.9521C34.6427 37.658 34.71 38.6398 34.1604 39.3569C33.3888 40.3639 30.9894 43.0677 30.6674 43.2933C30.2325 43.5979 29.2458 43.6028 28.6666 43.3033C28.182 43.0527 27.7033 42.2072 27.7033 41.6016C27.7033 41.3924 27.91 40.9045 28.1627 40.5174C28.8116 39.5231 31.3581 36.6917 31.8249 36.4453C32.4871 36.0956 33.4081 36.3106 33.9957 36.9521ZM38.7213 40.9059C39.4354 41.62 39.5008 42.6029 38.8923 43.4734C38.1235 44.5732 35.5682 47.3601 35.2001 47.4999C33.7125 48.0655 32.1279 46.659 32.6093 45.2004C32.7983 44.6276 35.9193 40.8714 36.4522 40.5754C36.6465 40.4674 37.1158 40.3764 37.4944 40.3732C38.0703 40.3686 38.2711 40.4557 38.7213 40.9059Z" fill="#004333"/>
</svg>
