<svg width="45" height="44" viewBox="0 0 45 44" fill="none" xmlns="http://www.w3.org/2000/svg">
<path fill-rule="evenodd" clip-rule="evenodd" d="M13.6661 0.772331C11.8988 1.36625 11.3451 1.58731 11.195 1.75887C11.0017 1.97976 11.0016 1.98191 11.0016 5.24123C11.0016 7.03493 10.9909 8.50253 10.9778 8.50253C10.9648 8.50253 10.1463 8.23265 9.15912 7.90268C7.99733 7.51444 7.2928 7.3208 7.16172 7.35363C7.05033 7.38165 6.88247 7.50207 6.7887 7.62128C6.63725 7.8139 6.61817 7.97144 6.61817 9.02983V10.2215H5.15427C3.10487 10.2215 2.92231 10.319 2.92231 11.4132V11.9062L1.69752 12.201C0.716911 12.4371 0.425626 12.5419 0.236363 12.7272L0 12.9587V14.2927C0 15.5791 0.00739173 15.6355 0.207398 15.868L0.414882 16.1091L10.457 16.1331C15.9801 16.1463 20.5872 16.1356 20.6947 16.1094C21.0778 16.0161 21.2297 15.7633 21.2297 15.2189V14.7155L21.9177 14.6683C22.4618 14.631 22.6998 14.5686 23.0565 14.3695C23.5983 14.0671 24.0118 13.5021 24.1446 12.8832C24.2006 12.622 24.238 11.3644 24.238 9.74064V7.03355L24.449 6.82263C24.6264 6.64514 24.7424 6.61162 25.1796 6.61162H25.6991V11.3819V16.1521H26.4297H27.1603V14.3042V12.4562H27.8909H28.6214V14.3042V16.1521H29.352H30.0826V14.3042V12.4562H30.8132H31.5438V14.3042V16.1521H32.2767H33.0096L32.9857 10.329C32.9621 4.54572 32.9606 4.50352 32.7761 4.16204C32.3526 3.37877 31.7118 2.99028 30.7487 2.93321L30.0826 2.89367L30.0854 2.41054C30.0904 1.51752 30.2366 1.4546 32.3068 1.4546C33.9101 1.4546 33.9453 1.45847 34.1819 1.662L34.4231 1.8694L34.4661 8.21571L34.509 14.562L34.6995 14.9181C35.0679 15.6069 35.9607 16.1521 36.7203 16.1521C36.867 16.1521 37.0516 16.2373 37.1774 16.3631L37.3884 16.574V18.5548C37.3884 19.6443 37.3594 20.5363 37.3239 20.537C37.2884 20.5379 36.892 20.5767 36.4429 20.6232C34.5683 20.8174 33.2884 21.2264 32.7137 21.8149C32.38 22.1568 32.2371 22.5494 32.2334 23.1356L32.2314 23.4579H31.5008H30.7702V21.408V19.358L30.5168 19.0082C30.3362 18.759 30.083 18.5704 29.6358 18.352C28.4484 17.7723 27.1616 17.5667 25.1834 17.6406C22.7874 17.7302 21.3719 18.2123 20.7365 19.1552C20.5484 19.4343 20.5421 19.5086 20.5421 21.4508V23.4579H19.8115H19.081V21.5306V19.6033L18.8584 19.3389L18.6359 19.0744H12.5029H6.36995L6.12877 19.2817L5.88759 19.489L5.86172 21.4626L5.83577 23.4363L5.17412 23.4756C4.21578 23.5324 3.57381 23.9223 3.15111 24.7042C2.97036 25.0386 2.96408 25.155 2.92231 28.972L2.87933 32.8961L1.93388 32.6064C0.780515 32.2531 0.493698 32.239 0.211008 32.5218L0 32.7327V38.1151V43.4975L0.251233 43.7488L0.502465 44H22.0033H43.5041L43.7553 43.7488L44.0065 43.4975V38.1151V32.7327L43.801 32.5272C43.5668 32.293 42.1681 31.8273 40.6975 31.494C38.297 30.95 35.5035 30.7292 32.6399 30.8572C29.7491 30.9864 27.4555 31.289 21.8743 32.2772C15.5063 33.4048 13.043 33.6956 9.84131 33.6976C7.85706 33.6988 6.72002 33.621 5.28465 33.3857C4.85989 33.3162 4.48222 33.2585 4.44544 33.2577C4.40856 33.2569 4.38922 31.4737 4.40246 29.295L4.42644 25.3338L4.66762 25.1264C4.8586 24.9621 5.006 24.919 5.37671 24.919H5.84462V26.8156C5.84462 28.736 5.87608 28.9583 6.18094 29.1923C6.28512 29.2723 7.7614 29.2977 12.4343 29.2997C15.7986 29.3013 18.6138 29.2784 18.6903 29.2491C19.0279 29.1196 19.081 28.7889 19.081 26.8142V24.919H19.8115H20.5421L20.5426 26.1868C20.543 27.3624 20.5576 27.4786 20.7435 27.7858C21.2957 28.6981 22.7976 29.1967 25.2311 29.2757C27.4255 29.3469 28.9574 29.0617 29.9782 28.3916C30.7169 27.9068 30.7695 27.763 30.7699 26.2298L30.7702 24.919H31.4914H32.2126L32.244 26.1868C32.2721 27.319 32.296 27.4878 32.4682 27.7654C32.8391 28.3636 33.8059 28.8116 35.3619 29.1064C36.4709 29.3165 39.7675 29.3175 40.887 29.1081C42.3944 28.8261 43.3581 28.3957 43.7855 27.8138C43.954 27.5843 43.9649 27.4418 43.9898 25.1493C44.0042 23.8172 43.9924 22.5994 43.9635 22.4431C43.8543 21.8522 43.0755 21.31 41.8402 20.9647C41.3314 20.8226 39.4037 20.5356 38.9575 20.5356C38.8739 20.5356 38.8491 20.0659 38.8476 18.4513C38.8459 16.5406 38.8311 16.3347 38.6707 15.9802C38.3298 15.2272 37.7473 14.8145 36.8451 14.6871C36.5093 14.6396 36.2649 14.5512 36.149 14.4352C35.9719 14.2583 35.9698 14.1943 35.9272 7.92004C35.8862 1.87292 35.8767 1.56823 35.7178 1.24807C35.5056 0.820206 35.1005 0.415122 34.6726 0.202911C34.3689 0.0521537 34.1419 0.0364248 32.2743 0.0364248C29.9776 0.0364248 29.8466 0.0632413 29.2544 0.655525C28.8089 1.10101 28.6813 1.42237 28.6386 2.20667L28.5999 2.91576L28.1165 2.91628C27.4987 2.91688 27.1242 3.02285 26.6277 3.33778C26.1545 3.63783 25.7809 4.22667 25.7198 4.76876L25.6768 5.15047L25.0648 5.15133C24.3228 5.15236 23.7302 5.39568 23.3132 5.87064C22.785 6.47221 22.7769 6.52816 22.7763 9.56591C22.7761 11.2516 22.7403 12.4556 22.6844 12.6565C22.5751 13.0504 22.1898 13.2537 21.6299 13.2129L21.2727 13.1868L21.2489 11.9094L21.225 10.632L20.2175 9.59848C18.4733 7.80925 18.3497 7.76688 17.4396 8.64555L16.8463 9.21832V4.81689V0.41538L16.6352 0.204458C16.5061 0.0751884 16.3312 -0.00397183 16.184 0.000153781C16.0519 0.00384964 14.9188 0.351261 13.6661 0.772331ZM15.3851 8.24468V14.6909H13.9233H12.4616L12.4837 8.70314L12.5058 2.71524L13.838 2.26357C14.5707 2.01517 15.2186 1.80889 15.2777 1.8052C15.3628 1.79978 15.3851 3.14138 15.3851 8.24468ZM31.2925 4.62815C31.5387 4.87431 31.5438 4.89786 31.5438 5.79277C31.5438 6.74055 31.4373 7.13678 31.1531 7.24585C31.0766 7.27516 30.2419 7.29922 29.2981 7.29922C27.5909 7.29922 27.5812 7.29819 27.3713 7.08822C27.1708 6.88778 27.1605 6.8271 27.163 5.86342C27.1671 4.36505 27.1402 4.38302 29.3801 4.37949L31.0413 4.37691L31.2925 4.62815ZM28.514 8.80602C28.5924 8.83146 28.6214 9.13229 28.6214 9.91804V10.9951H27.8909H27.1603V9.85341V8.71182L27.7834 8.74147C28.1262 8.7578 28.455 8.78685 28.514 8.80602ZM31.5438 9.83476V10.9951H30.8132H30.0826V9.88134V8.7676L30.7487 8.73829C31.115 8.72222 31.4438 8.70125 31.4793 8.6917C31.5148 8.68225 31.5438 9.19658 31.5438 9.83476ZM9.64792 9.61438L11.0016 10.0639V12.3774V14.6909H9.54048H8.07933V11.8884C8.07933 9.68254 8.10219 9.09421 8.18677 9.12532C8.2459 9.14707 8.90342 9.3671 9.64792 9.61438ZM19.0577 10.5849L19.7686 11.2921V12.9936V14.6951L18.3289 14.6715L16.8892 14.648L16.8659 12.9756L16.8424 11.3034L17.5516 10.5905C17.9415 10.1985 18.28 9.87773 18.3037 9.87773C18.3274 9.87773 18.6667 10.196 19.0577 10.5849ZM6.61817 13.2298V14.6909H5.50082H4.38346V13.2298V11.7686H5.50082H6.61817V13.2298ZM2.92231 14.0463V14.6909H2.19173H1.46115V14.2278V13.7647L2.12727 13.5916C2.49368 13.4963 2.82235 13.4147 2.85785 13.41C2.89334 13.4055 2.92231 13.6918 2.92231 14.0463ZM27.2075 19.1664C27.9615 19.2712 28.844 19.5252 29.0954 19.7098C29.258 19.8291 29.2466 19.8433 28.8558 20.0112C28.6303 20.1081 28.1275 20.2553 27.7385 20.3385C26.7989 20.5393 24.4691 20.5393 23.5862 20.3386C22.8709 20.176 22.1322 19.8993 22.1322 19.7941C22.1322 19.6578 23.1225 19.325 23.8778 19.2074C24.8032 19.0632 26.3309 19.0445 27.2075 19.1664ZM11.7752 21.2661V21.9967H9.54048H7.30578V21.2661V20.5356H9.54048H11.7752V21.2661ZM17.6198 21.2661V21.9967H15.4281H13.2363V21.2661V20.5356H15.4281H17.6198V21.2661ZM23.8942 21.8721C25.4342 22.1052 27.2872 22.0064 28.6206 21.6203L29.309 21.4209V24.2778V27.1348L28.9438 27.306C28.1504 27.6778 27.3094 27.7988 25.5702 27.7916C24.1746 27.7857 23.8384 27.7576 23.2576 27.5983C22.8839 27.4957 22.4585 27.3419 22.3122 27.2565L22.0462 27.1012L22.0236 24.2568L22.001 21.4123L22.5393 21.5805C22.8354 21.6729 23.4451 21.8042 23.8942 21.8721ZM40.3315 22.1214C40.9324 22.2285 42.3735 22.6561 42.3735 22.7273C42.3735 22.7985 40.9324 23.2261 40.3315 23.3333C39.2667 23.5231 36.7878 23.4964 35.7448 23.2838C34.6717 23.0652 33.8822 22.7812 34.0475 22.6734C34.2431 22.5459 35.2833 22.2458 35.9474 22.1254C36.7957 21.9716 39.4779 21.9691 40.3315 22.1214ZM11.7752 24.1885V24.919H9.54048H7.30578V24.1885V23.4579H9.54048H11.7752V24.1885ZM17.6198 24.1885V24.919H15.4281H13.2363V24.1885V23.4579H15.4281H17.6198V24.1885ZM34.4092 24.4539C36.6562 25.0361 39.2079 25.0611 41.5844 24.5241C42.0875 24.4104 42.5096 24.3174 42.5224 24.3174C42.535 24.3174 42.5454 24.9384 42.5454 25.6974V27.0774L42.1473 27.2535C40.6771 27.9039 36.9213 28.0356 34.912 27.5073C34.5958 27.4241 34.2211 27.3005 34.0793 27.2324L33.8214 27.1086L33.7978 25.713C33.7848 24.9454 33.7986 24.3174 33.8284 24.3174C33.8582 24.3174 34.1195 24.3788 34.4092 24.4539ZM11.7571 27.1323L11.7822 27.8413H9.54392H7.30578V27.1093V26.3773L9.51899 26.4002L11.7322 26.4232L11.7571 27.1323ZM17.6198 27.1108V27.8413H15.4281H13.2363V27.1108V26.3802H15.4281H17.6198V27.1108ZM36.0132 32.3144C38.2037 32.4515 40.0736 32.7694 41.8363 33.3044L42.5454 33.5196V34.2145C42.5454 34.8941 42.5412 34.9081 42.352 34.8541C39.3909 34.0086 36.9387 33.7204 33.3641 33.798C30.1471 33.8678 28.0972 34.1141 22.476 35.1065C16.402 36.1789 14.4433 36.4464 11.4463 36.6135C9.49476 36.7222 7.44691 36.642 5.71569 36.3888C4.23477 36.1723 4.38346 36.2779 4.38346 35.4433V34.7217L4.61983 34.7652C5.85725 34.9933 6.94693 35.0804 9.08073 35.1218C13.1164 35.2003 14.8361 35.0014 24.0231 33.3939C28.3656 32.634 30.9272 32.3406 34.0793 32.2417C34.3629 32.2329 35.2332 32.2655 36.0132 32.3144ZM2.29917 34.2519L2.92231 34.4116V35.129C2.92231 35.7725 2.90684 35.8415 2.7719 35.8C2.68921 35.7745 2.36037 35.6736 2.04132 35.5758L1.46115 35.3981V34.7047C1.46115 34.1858 1.48814 34.0215 1.56859 34.0518C1.62773 34.0739 1.9564 34.164 2.29917 34.2519ZM38.4016 35.4764C39.5678 35.6596 40.9281 35.963 41.9652 36.2713L42.5454 36.4437V37.1276C42.5454 37.5038 42.524 37.8116 42.4978 37.8116C42.4716 37.8116 41.9978 37.6934 41.4449 37.549C38.9296 36.892 36.5038 36.6451 33.3057 36.7208C30.2086 36.794 28.2278 37.0367 22.3041 38.0692C15.9346 39.1792 14.4722 39.3781 11.4482 39.5454C8.052 39.7332 4.87605 39.3756 1.89091 38.4692L1.50413 38.3518L1.47903 37.6413C1.45901 37.0755 1.47731 36.9399 1.56902 36.9751C2.34653 37.2734 4.67509 37.7506 6.31735 37.948C7.93562 38.1425 11.4586 38.1424 13.4512 37.9479C15.3434 37.7631 17.8772 37.3978 20.671 36.9071C29.3731 35.3787 30.5919 35.2356 34.595 35.2724C36.7877 35.2925 37.4617 35.3287 38.4016 35.4764ZM37.2833 38.2874C38.7209 38.4374 40.1693 38.7143 41.5785 39.1086L42.5454 39.3791V40.959V42.5388H22.0033H1.46115V41.1974C1.46115 39.9549 1.47224 39.8603 1.61157 39.9144C1.95889 40.0493 3.81095 40.4806 4.72727 40.6399C6.49432 40.9474 7.4023 41.0221 9.36858 41.022C12.874 41.0219 17.2212 40.5581 21.3847 39.7401C24.8169 39.0659 29.0479 38.4296 31.2859 38.2512C32.8502 38.1266 35.9191 38.1451 37.2833 38.2874Z" fill="#004333"/>
</svg>
