<svg width="499" height="420" viewBox="0 0 499 420" fill="none" xmlns="http://www.w3.org/2000/svg">
<circle cx="219" cy="209" r="185" fill="url(#paint0_radial_553_730)" stroke="#FEA440" stroke-width="6"/>
<path style="mix-blend-mode:lighten" d="M180.134 201.855L0 101.869L41.7198 43.3823L253.66 161.03L180.134 201.855Z" fill="url(#paint1_linear_553_730)"/>
<path d="M189.493 305.851L68.0996 238.472L164.572 184.92L285.966 252.299L189.493 305.851Z" fill="#053054"/>
<path d="M189.493 178.672L68.0996 111.293L164.572 57.7407L285.966 125.12L189.493 178.672Z" fill="url(#paint2_linear_553_730)"/>
<path d="M285.966 197.399V125.121L189.493 178.673V250.951L285.966 197.399Z" fill="url(#paint3_linear_553_730)"/>
<path d="M68.0996 111.293V183.572L189.493 250.951V178.673L68.0996 111.293Z" fill="url(#paint4_linear_553_730)"/>
<path d="M142.752 94.3779L90.1963 123.559V139.197L105.795 147.859V132.221L158.351 103.04L142.752 94.3779Z" fill="white"/>
<path d="M176.128 112.909L123.572 142.073V157.71L139.171 166.373V150.735L191.727 121.553L176.128 112.909Z" fill="white"/>
<path d="M209.559 131.457L157.003 160.62V176.258L172.602 184.92V169.282L225.158 140.119L209.559 131.457Z" fill="white"/>
<path d="M142.752 94.3779V100.679L152.776 106.129L158.351 103.04L142.752 94.3779Z" fill="#A9EBFF"/>
<path d="M95.8451 135.965L90.1963 139.196L105.795 147.858V141.344L95.8451 135.965Z" fill="#A9EBFF"/>
<path d="M142.752 94.3779L90.1963 123.559V139.197L95.8451 135.966V126.736L142.771 100.679L142.752 94.3779Z" fill="url(#paint5_linear_553_730)"/>
<path d="M176.128 112.909V119.21L186.152 124.66L191.727 121.554L176.128 112.909Z" fill="#A9EBFF"/>
<path d="M129.239 154.48L123.572 157.711L139.171 166.373V159.859L129.239 154.48Z" fill="#A9EBFF"/>
<path d="M176.128 112.909L123.572 142.073V157.71L129.239 154.48V145.25L176.165 119.21L176.128 112.909Z" fill="url(#paint6_linear_553_730)"/>
<path d="M209.559 131.457V137.758L219.583 143.207L225.158 140.119L209.559 131.457Z" fill="#A9EBFF"/>
<path d="M162.652 173.029L157.003 176.26L172.602 184.922V178.425L162.652 173.029Z" fill="#A9EBFF"/>
<path d="M209.559 131.457L157.003 160.62V176.258L162.652 173.027V163.797L209.577 137.758L209.559 131.457Z" fill="url(#paint7_linear_553_730)"/>
<path d="M268.078 256.737L331.377 221.609V194.611L268.078 229.757V256.737Z" fill="url(#paint8_linear_553_730)"/>
<path d="M268.078 229.758L331.377 194.612L268.096 159.485L204.815 194.612L268.078 229.758Z" fill="url(#paint9_linear_553_730)"/>
<path d="M268.078 217.066L308.505 194.612L268.096 172.176L227.668 194.612L268.078 217.066Z" fill="white"/>
<path d="M268.096 176.259L304.832 196.671L308.505 194.612L268.096 172.176L227.668 194.612L231.342 196.671L268.096 176.259Z" fill="#A9EBFF"/>
<path d="M268.096 160.816L330.178 195.287L331.377 194.612L268.096 159.485L204.815 194.612L205.996 195.287L268.096 160.816Z" fill="#A9EBFF"/>
<path d="M204.796 221.609L268.096 256.737V229.757L204.796 194.611V221.609Z" fill="url(#paint10_linear_553_730)"/>
<path d="M268.078 228.408L330.159 193.938L331.377 194.612L268.078 229.757L204.815 194.612L206.015 193.955L268.078 228.408Z" fill="#A9EBFF"/>
<path d="M279.814 233.409C280.101 232.904 280.488 232.459 280.952 232.101C281.416 231.742 281.948 231.477 282.518 231.32C283.087 231.163 283.682 231.118 284.269 231.187C284.857 231.256 285.424 231.438 285.939 231.722L302.623 241.151C306.563 243.371 309.836 246.566 312.11 250.416C314.385 254.265 315.582 258.632 315.581 263.078V283.166C315.586 286.07 316.369 288.922 317.852 291.437C319.336 293.953 321.468 296.044 324.035 297.503L446.676 366.658C449.665 368.345 452.989 369.386 456.424 369.711C456.114 372.612 456.234 375.564 455.993 378.482C451.127 378.093 446.411 376.646 442.19 374.248L319.549 305.093C315.613 302.872 312.344 299.675 310.072 295.826C307.801 291.977 306.606 287.61 306.609 283.166V263.145C306.603 260.242 305.817 257.392 304.331 254.879C302.844 252.366 300.708 250.278 298.137 248.825L281.453 239.397C280.942 239.11 280.493 238.727 280.134 238.271C279.775 237.814 279.511 237.293 279.359 236.736C279.207 236.18 279.168 235.599 279.246 235.028C279.325 234.457 279.517 233.907 279.814 233.409Z" fill="white"/>
<path d="M300.12 224.533C300.407 224.028 300.794 223.583 301.258 223.225C301.722 222.866 302.254 222.601 302.823 222.444C303.392 222.287 303.988 222.242 304.575 222.311C305.162 222.38 305.73 222.562 306.245 222.846L322.929 232.275C326.869 234.495 330.141 237.69 332.416 241.54C334.691 245.389 335.888 249.756 335.887 254.202V274.29C335.892 277.194 336.675 280.046 338.158 282.561C339.641 285.077 341.773 287.168 344.341 288.627L466.981 357.782C469.97 359.469 473.295 360.51 476.73 360.835C476.419 363.736 476.54 366.688 476.298 369.606C471.432 369.217 466.717 367.771 462.495 365.372L339.855 296.218C335.918 293.996 332.65 290.799 330.378 286.95C328.106 283.101 326.912 278.734 326.915 274.29V254.269C326.909 251.366 326.123 248.516 324.636 246.003C323.15 243.49 321.014 241.402 318.443 239.949L301.759 230.521C301.247 230.234 300.799 229.851 300.44 229.395C300.08 228.938 299.817 228.417 299.665 227.86C299.512 227.304 299.474 226.723 299.552 226.152C299.63 225.581 299.823 225.031 300.12 224.533Z" fill="white"/>
<path d="M318.58 212.108C318.868 211.602 319.254 211.158 319.718 210.799C320.182 210.441 320.714 210.176 321.284 210.019C321.853 209.862 322.448 209.817 323.035 209.886C323.623 209.955 324.19 210.137 324.705 210.421L341.39 219.85C345.33 222.069 348.602 225.265 350.876 229.114C353.151 232.964 354.348 237.331 354.347 241.777V261.865C354.352 264.769 355.135 267.62 356.618 270.136C358.102 272.651 360.234 274.743 362.802 276.202L485.442 345.357C488.431 347.043 491.755 348.084 495.19 348.41C494.88 351.311 495 354.262 494.759 357.18C489.893 356.792 485.177 355.345 480.956 352.947L358.316 283.792C354.379 281.57 351.11 278.374 348.838 274.525C346.567 270.675 345.372 266.309 345.375 261.865V241.844C345.369 238.941 344.583 236.09 343.097 233.577C341.61 231.064 339.474 228.977 336.904 227.524L320.219 218.095C319.708 217.809 319.26 217.426 318.9 216.97C318.541 216.513 318.277 215.991 318.125 215.435C317.973 214.878 317.934 214.298 318.013 213.727C318.091 213.156 318.283 212.605 318.58 212.108Z" fill="white"/>
<path opacity="0.2" d="M254.731 243.799L261.192 247.384V234.906L254.731 231.32V243.799Z" fill="white"/>
<path opacity="0.4" d="M243.969 237.816L250.43 241.402V228.923L243.969 225.355V237.816Z" fill="white"/>
<path opacity="0.8" d="M233.207 231.851L239.668 235.437V222.959L233.207 219.373V231.851Z" fill="white"/>
<path d="M222.463 225.871L228.924 229.456V216.996L222.463 213.41V225.871Z" fill="white"/>
<path d="M211.701 219.907L218.162 223.493V211.014L211.701 207.429V219.907Z" fill="white"/>
<path d="M145.152 198.694C145.277 200.974 145.961 203.193 147.148 205.171C148.335 207.148 149.992 208.828 151.982 210.072C155.674 212.167 158.812 210.463 158.812 206.274C158.683 203.995 157.997 201.777 156.81 199.801C155.623 197.824 153.97 196.144 151.982 194.896C148.198 192.801 145.152 194.505 145.152 198.694Z" fill="white"/>
<path d="M131.928 196.711C134.594 195.231 134.595 190.431 131.929 185.991C129.263 181.551 124.94 179.151 122.273 180.632C119.607 182.112 119.607 186.911 122.273 191.352C124.939 195.792 129.262 198.191 131.928 196.711Z" fill="white"/>
<path d="M95.3833 171.059C95.5086 173.339 96.1927 175.558 97.3797 177.535C98.5667 179.512 100.223 181.192 102.214 182.437C105.906 184.531 109.044 182.845 109.044 178.656C108.914 176.377 108.228 174.159 107.042 172.183C105.855 170.206 104.201 168.526 102.214 167.278C98.4292 165.183 95.3833 166.87 95.3833 171.059Z" fill="white"/>
<path d="M148.604 194.062C148.25 194.877 148.074 195.753 148.087 196.636C148.216 198.917 148.903 201.137 150.094 203.114C151.284 205.091 152.943 206.77 154.936 208.014C155.937 208.625 157.111 208.923 158.295 208.866C157.28 211.067 154.843 211.653 151.982 210.073C149.992 208.828 148.335 207.149 147.148 205.172C145.961 203.194 145.277 200.975 145.152 198.695C145.152 195.873 146.555 194.222 148.604 194.062Z" fill="#A9EBFF"/>
<path d="M123.72 180.235C123.36 181.054 123.183 181.937 123.203 182.826C123.332 185.108 124.02 187.327 125.21 189.304C126.4 191.282 128.059 192.96 130.052 194.204C131.057 194.807 132.228 195.104 133.412 195.056C132.396 197.257 129.96 197.843 127.098 196.263C125.108 195.019 123.451 193.339 122.264 191.362C121.077 189.384 120.393 187.165 120.268 184.885C120.268 182.063 121.671 180.395 123.72 180.235Z" fill="#A9EBFF"/>
<path d="M98.8355 166.425C98.462 167.223 98.267 168.088 98.2633 168.963C98.393 171.242 99.0789 173.46 100.266 175.436C101.452 177.413 103.106 179.093 105.094 180.341C106.104 180.946 107.283 181.237 108.472 181.175C107.456 183.376 105.001 183.98 102.158 182.382C100.168 181.137 98.5115 179.458 97.3245 177.481C96.1375 175.503 95.4535 173.284 95.3281 171.004C95.3835 168.235 96.7865 166.585 98.8355 166.425Z" fill="#A9EBFF"/>
<path d="M306.345 115.464L249.876 84.0992L294.753 59.1958L351.24 90.5425L306.345 115.464Z" fill="#053054"/>
<path d="M306.345 56.2856L249.876 24.9211L294.753 0L351.24 31.3644L306.345 56.2856Z" fill="url(#paint11_linear_553_730)"/>
<path d="M351.24 65.0007V31.3643L306.345 56.2854V89.9219L351.24 65.0007Z" fill="url(#paint12_linear_553_730)"/>
<path d="M249.876 24.9219V58.5584L306.345 89.9228V56.2864L249.876 24.9219Z" fill="url(#paint13_linear_553_730)"/>
<path d="M284.6 17.0581L260.14 30.637V37.9145L267.413 41.9438V34.6662L291.855 21.0874L284.6 17.0581Z" fill="white"/>
<path d="M300.143 25.6841L275.683 39.2452V46.5227L282.938 50.552V43.2745L307.398 29.7134L300.143 25.6841Z" fill="white"/>
<path d="M315.686 34.312L291.227 47.8908V55.1684L298.5 59.1976V51.9201L322.941 38.3413L315.686 34.312Z" fill="white"/>
<path d="M284.6 17.0581V19.9869L289.271 22.5252L291.855 21.0874L284.6 17.0581Z" fill="#A9EBFF"/>
<path d="M262.78 36.4062L260.14 37.915L267.413 41.9443V38.909L262.78 36.4062Z" fill="#A9EBFF"/>
<path d="M284.6 17.0581L260.14 30.6369V37.9145L262.78 36.4057V32.1102L284.618 19.9869L284.6 17.0581Z" fill="url(#paint14_linear_553_730)"/>
<path d="M300.143 25.6841V28.6128L304.795 31.1511L307.398 29.7133L300.143 25.6841Z" fill="#A9EBFF"/>
<path d="M278.304 45.0322L275.683 46.5232L282.938 50.5525V47.535L278.304 45.0322Z" fill="#A9EBFF"/>
<path d="M300.143 25.6841L275.683 39.2452V46.5227L278.304 45.0317V40.7362L300.143 28.6128V25.6841Z" fill="url(#paint15_linear_553_730)"/>
<path d="M315.687 34.312V37.2408L320.357 39.779L322.941 38.3413L315.687 34.312Z" fill="#A9EBFF"/>
<path d="M293.866 53.6582L291.227 55.167L298.5 59.1963V56.161L293.866 53.6582Z" fill="#A9EBFF"/>
<path d="M315.686 34.312L291.227 47.8908V55.1684L293.866 53.6596V49.3641L315.705 37.2408L315.686 34.312Z" fill="url(#paint16_linear_553_730)"/>
<path d="M96.081 374.382L202.8 350.143C203.642 349.959 204.514 349.952 205.359 350.125C206.204 350.298 207.001 350.645 207.7 351.145C208.398 351.645 208.981 352.285 209.41 353.023C209.839 353.762 210.104 354.581 210.188 355.428L215.969 413.383C216.072 414.388 215.916 415.401 215.518 416.331C215.119 417.26 214.489 418.076 213.687 418.702C212.885 419.328 211.936 419.745 210.927 419.915C209.919 420.084 208.883 420 207.916 419.671L95.6377 381.781C94.8311 381.51 94.137 380.984 93.6618 380.286C93.1866 379.588 92.9565 378.755 93.0068 377.915C93.0571 377.076 93.385 376.276 93.9403 375.637C94.4955 374.999 95.2475 374.558 96.081 374.382Z" fill="url(#paint17_radial_553_730)"/>
<defs>
<radialGradient id="paint0_radial_553_730" cx="0" cy="0" r="1" gradientUnits="userSpaceOnUse" gradientTransform="translate(252.346 -22.8393) scale(343.419 413.962)">
<stop stop-color="#00AE84"/>
<stop offset="1" stop-color="#217863"/>
</radialGradient>
<linearGradient id="paint1_linear_553_730" x1="68.007" y1="37.2585" x2="211.826" y2="286.321" gradientUnits="userSpaceOnUse">
<stop stop-color="#113F6D"/>
<stop offset="1" stop-color="white"/>
</linearGradient>
<linearGradient id="paint2_linear_553_730" x1="188.81" y1="126.948" x2="21.5138" y2="-7.4692" gradientUnits="userSpaceOnUse">
<stop stop-color="#59BDEF"/>
<stop offset="1" stop-color="#7BDAFF"/>
</linearGradient>
<linearGradient id="paint3_linear_553_730" x1="189.493" y1="188.045" x2="285.966" y2="188.045" gradientUnits="userSpaceOnUse">
<stop stop-color="#2573BA"/>
<stop offset="1" stop-color="#0063AD"/>
</linearGradient>
<linearGradient id="paint4_linear_553_730" x1="68.0996" y1="181.122" x2="189.493" y2="181.122" gradientUnits="userSpaceOnUse">
<stop stop-color="#3A9BD5"/>
<stop offset="1" stop-color="#2573BA"/>
</linearGradient>
<linearGradient id="paint5_linear_553_730" x1="4434.42" y1="3167.62" x2="5931.73" y2="3167.62" gradientUnits="userSpaceOnUse">
<stop stop-color="#2573BA"/>
<stop offset="1" stop-color="#0063AD"/>
</linearGradient>
<linearGradient id="paint6_linear_553_730" x1="5420.2" y1="3652.66" x2="6918.57" y2="3652.66" gradientUnits="userSpaceOnUse">
<stop stop-color="#2573BA"/>
<stop offset="1" stop-color="#0063AD"/>
</linearGradient>
<linearGradient id="paint7_linear_553_730" x1="6403.9" y1="4139.38" x2="7901.22" y2="4139.38" gradientUnits="userSpaceOnUse">
<stop stop-color="#2573BA"/>
<stop offset="1" stop-color="#0063AD"/>
</linearGradient>
<linearGradient id="paint8_linear_553_730" x1="124074" y1="7404.21" x2="121385" y2="9293.92" gradientUnits="userSpaceOnUse">
<stop stop-color="#3A9BD5"/>
<stop offset="1" stop-color="#2573BA"/>
</linearGradient>
<linearGradient id="paint9_linear_553_730" x1="315.539" y1="175.016" x2="227.314" y2="214.448" gradientUnits="userSpaceOnUse">
<stop stop-color="#7BDAFF"/>
<stop offset="1" stop-color="#59BDEF"/>
</linearGradient>
<linearGradient id="paint10_linear_553_730" x1="122054" y1="7864.56" x2="119157" y2="8754.36" gradientUnits="userSpaceOnUse">
<stop stop-color="#2573BA"/>
<stop offset="1" stop-color="#0063AD"/>
</linearGradient>
<linearGradient id="paint11_linear_553_730" x1="20477.2" y1="1178.06" x2="18081.1" y2="-2155.99" gradientUnits="userSpaceOnUse">
<stop stop-color="#59BDEF"/>
<stop offset="1" stop-color="#7BDAFF"/>
</linearGradient>
<linearGradient id="paint12_linear_553_730" x1="9273.21" y1="2194.48" x2="10364.6" y2="2194.48" gradientUnits="userSpaceOnUse">
<stop stop-color="#2573BA"/>
<stop offset="1" stop-color="#0063AD"/>
</linearGradient>
<linearGradient id="paint13_linear_553_730" x1="9800.56" y1="2308.41" x2="11528.5" y2="2308.41" gradientUnits="userSpaceOnUse">
<stop stop-color="#3A9BD5"/>
<stop offset="1" stop-color="#2573BA"/>
</linearGradient>
<linearGradient id="paint14_linear_553_730" x1="4536.22" y1="397.896" x2="4860.8" y2="397.896" gradientUnits="userSpaceOnUse">
<stop stop-color="#2573BA"/>
<stop offset="1" stop-color="#0063AD"/>
</linearGradient>
<linearGradient id="paint15_linear_553_730" x1="4754.49" y1="507.473" x2="5078.58" y2="507.473" gradientUnits="userSpaceOnUse">
<stop stop-color="#2573BA"/>
<stop offset="1" stop-color="#0063AD"/>
</linearGradient>
<linearGradient id="paint16_linear_553_730" x1="4979.52" y1="617.874" x2="5304.1" y2="617.874" gradientUnits="userSpaceOnUse">
<stop stop-color="#2573BA"/>
<stop offset="1" stop-color="#0063AD"/>
</linearGradient>
<radialGradient id="paint17_radial_553_730" cx="0" cy="0" r="1" gradientUnits="userSpaceOnUse" gradientTransform="translate(202.117 316.281) scale(112.722 111.226)">
<stop stop-color="#FCB454"/>
<stop offset="1" stop-color="#FF962E"/>
</radialGradient>
</defs>
</svg>
