<svg width="47" height="44" viewBox="0 0 47 44" fill="none" xmlns="http://www.w3.org/2000/svg">
<path fill-rule="evenodd" clip-rule="evenodd" d="M11.3233 0.814905C10.7131 1.42812 10.5125 2.17294 10.5125 3.82313C10.5125 5.75364 10.403 6.04619 9.60028 6.26255C8.21578 6.63537 8.07996 6.58525 8.07996 5.70434C8.07996 4.65474 6.69181 3.25962 5.64746 3.25962C4.16161 3.25962 3.21496 4.69223 3.21496 6.94014C3.21496 8.73538 3.04063 9.16646 1.81546 10.3978C0.0591912 12.1629 -0.397714 14.2062 0.527853 16.1567C1.12341 17.4125 1.12909 17.6753 0.581368 18.7396C-0.186492 20.2321 -0.188114 21.4809 0.575287 22.9526C1.10395 23.9708 1.10355 24.2438 0.572854 25.2751C-0.190951 26.7603 -0.190951 28.2458 0.572854 29.731C1.10355 30.7623 1.10395 31.0353 0.575287 32.0535C-2.59264 38.1579 8.61146 44 23.4858 44C38.3602 44 49.5643 38.1579 46.3963 32.0535C45.8677 31.0353 45.8681 30.7623 46.3988 29.731C46.7296 29.088 47 28.0857 47 27.5031C47 26.9204 46.7296 25.9181 46.3988 25.2751C45.8681 24.2438 45.8677 23.9708 46.3963 22.9526C47.1597 21.4809 47.1581 20.2321 46.3903 18.7396C45.8425 17.6753 45.8482 17.4125 46.4438 16.1567C48.4072 12.0194 44.2809 8.07612 35.4456 5.64566C32.6194 4.86865 31.1198 4.74927 23.7903 4.71952L15.3779 4.68571V3.15776C15.3775 1.44646 14.263 0 12.945 0C12.499 0 11.7693 0.366707 11.3233 0.814905ZM13.6776 3.59699C13.7866 5.08175 13.697 5.29688 12.9681 5.29688C12.2716 5.29688 12.1341 5.03978 12.1341 3.73512C12.1341 0.981553 13.4773 0.861762 13.6776 3.59699ZM6.38126 6.21773C6.46883 6.95644 6.25315 7.41605 5.67178 7.72856C4.90555 8.1409 4.83663 8.06471 4.83663 6.80527C4.83663 6.05026 4.9619 5.30666 5.11555 5.15265C5.6353 4.62988 6.25518 5.15142 6.38126 6.21773ZM35.2016 7.30237C40.8316 8.72967 45.3783 11.6825 45.3783 13.9112C45.3783 15.0167 44.6843 16.2317 43.4068 17.3628C42.0345 18.5782 41.899 18.5701 39.2148 17.1089C35.1845 14.9148 31.4044 14.1647 24.0939 14.1076C20.5263 14.0799 17.1058 14.1981 16.4924 14.3704L15.3775 14.6838V10.6284V6.57343L16.4924 6.37949C17.1058 6.27273 20.7999 6.24258 24.7021 6.31226C30.2737 6.41208 32.5278 6.62437 35.2016 7.30237ZM13.7558 7.66704C13.7558 8.21139 13.1379 8.60336 11.4247 9.14568C10.1423 9.55151 8.86566 9.97159 8.58673 10.0787C7.94861 10.324 7.90117 8.71541 8.53524 8.32181C9.04485 8.00522 12.465 7.0196 13.249 6.96296C13.528 6.94299 13.7558 7.25999 13.7558 7.66704ZM6.37072 13.7515C6.26491 17.7784 6.19031 18.1406 5.44475 18.2412C4.43283 18.3782 2.09601 16.2182 1.74775 14.8244C1.60626 14.2572 1.68937 13.3543 1.93262 12.8181C2.36155 11.8715 5.40461 9.37141 6.12747 9.37141C6.32451 9.37141 6.43397 11.3423 6.37072 13.7515ZM13.7558 10.9267C13.7558 11.471 13.1379 11.863 11.4247 12.4053C10.1423 12.8111 8.86566 13.2312 8.58673 13.3384C8.29037 13.4521 8.07996 13.2096 8.07996 12.7533C8.07996 12.1592 8.68444 11.7689 10.6138 11.1173C13.8061 10.0388 13.7558 10.0417 13.7558 10.9267ZM13.7554 14.159C13.755 14.6699 13.0946 15.0798 11.4242 15.6063C10.1423 16.01 8.86566 16.4379 8.58673 16.5568C8.28389 16.6864 8.07996 16.4631 8.07996 16.0031C8.07996 15.4209 8.69944 15.0236 10.6138 14.377C13.7976 13.3013 13.7558 13.3041 13.7554 14.159ZM33.2843 16.6563C34.9944 17.104 37.1703 17.8684 38.1201 18.3553C39.6514 19.1409 39.7621 19.288 39.0992 19.6608C37.6426 20.4802 32.5461 21.5925 28.0468 22.0729C21.7137 22.7493 13.2292 21.8101 8.37754 19.8959C7.53792 19.5647 7.36278 19.3239 7.68144 18.938C8.24902 18.251 14.1584 16.3641 17.2018 15.898C21.0484 15.3088 29.6964 15.7167 33.2843 16.6563ZM12.8436 18.3492C11.4587 19.1967 12.0162 19.909 14.0599 19.9032C15.1188 19.9008 16.7644 20.0247 17.7163 20.1791C18.8803 20.3677 19.6477 20.292 20.0608 19.9477C21.0557 19.1177 20.5117 18.5737 18.5916 18.4784C17.6044 18.4291 16.0667 18.2824 15.1748 18.152C14.2828 18.022 13.2336 18.1109 12.8436 18.3492ZM24.3177 18.5138C24.0197 18.8748 23.9034 19.2982 24.0595 19.4551C24.6668 20.0658 31.837 20.1665 35.4071 19.6144C35.609 19.5834 35.4302 19.1759 35.0098 18.709C34.381 18.0106 33.9561 17.9067 32.6158 18.1223C30.5445 18.4556 28.5884 18.4552 26.5037 18.121C25.2534 17.9206 24.7296 18.0147 24.3177 18.5138ZM8.87215 22.0293C19.6826 25.3872 35.6897 24.4219 42.6349 19.9933C44.4657 18.8255 44.5724 18.8052 44.966 19.5443C45.7104 20.9423 45.4071 22.0827 43.9156 23.4966C40.4833 26.7497 34.34 28.505 25.3102 28.8126C16.177 29.1239 8.78782 27.6155 4.41824 24.5474C1.94316 22.8092 1.19193 21.3782 1.91641 19.7806L2.38426 18.7481L4.32012 19.9823C5.38475 20.6615 7.43292 21.5824 8.87215 22.0293ZM3.9962 26.4632C8.16753 29.4486 19.3692 31.3755 27.8408 30.5651C34.681 29.9107 40.0609 28.4072 43.4668 26.198C44.4564 25.5562 44.6433 25.5412 44.9806 26.077C46.7215 28.8395 42.66 32.2523 35.1995 34.2965C32.1707 35.1261 30.8843 35.2288 23.4858 35.2288C16.0874 35.2288 14.801 35.1261 11.7721 34.2965C4.48513 32.2996 0.711913 29.2673 1.83938 26.3141C2.1629 25.467 2.65143 25.5008 3.9962 26.4632ZM5.70219 33.9604C10.4687 36.3224 15.3848 37.2249 23.4858 37.2249C31.8143 37.2249 36.6619 36.3142 41.505 33.8406C44.8071 32.1537 45.3573 32.168 45.3722 33.9408C45.4091 38.2928 36.9311 41.8042 25.3102 42.2508C11.8767 42.767 0.469068 38.3751 1.76519 33.1862C1.90992 32.606 2.15885 32.1973 2.31777 32.2788C2.47669 32.3603 3.99985 33.1169 5.70219 33.9604Z" fill="#004333"/>
</svg>
