<svg width="50" height="50" viewBox="0 0 50 50" fill="none" xmlns="http://www.w3.org/2000/svg">
<path fill-rule="evenodd" clip-rule="evenodd" d="M1.57088 0.192361C1.01056 0.411177 0.509137 0.860921 0.211196 1.41206L0 1.80281V25.0031V48.2035L0.211196 48.5942C0.460197 49.0548 0.939149 49.526 1.41644 49.7799C1.74564 49.9551 2.3976 49.9628 18.947 49.9873C37.8536 50.0153 36.6202 50.053 37.3834 49.4239C37.5784 49.2632 37.8517 48.9033 37.9909 48.624L38.2439 48.1162V43.4636V38.8109L38.0179 38.5984C37.6956 38.2958 37.1737 38.3138 36.8689 38.6381L36.6321 38.89L36.6079 43.2537C36.5945 45.6537 36.5609 47.7154 36.5331 47.8354C36.4077 48.378 37.3603 48.35 19.0461 48.35H2.18288L1.89735 48.0645L1.61181 47.7789V25.0161V2.25333L1.84753 1.97923L2.08334 1.70512L18.9669 1.67943C30.8758 1.66136 35.9259 1.6848 36.1062 1.75914C36.2467 1.81707 36.4117 1.96057 36.4728 2.07789C36.5525 2.23106 36.5906 4.57043 36.608 10.3669L36.6321 18.4426L36.8689 18.6946C37.1835 19.0294 37.7299 19.0416 38.0315 18.7206L38.2439 18.4944V10.1922V1.89004L37.9867 1.37397C37.6901 0.778768 37.0501 0.25869 36.4179 0.0990716C36.1371 0.0281519 30.6668 -0.00291213 19.0298 0.000213812C2.52293 0.00460966 2.03801 0.00998236 1.57088 0.192361ZM7.99625 5.07449C7.51544 5.2685 7.47295 5.46885 7.47295 7.54359C7.47295 9.46927 7.47432 9.48128 7.71277 9.71973L7.95249 9.95955H19.1249H30.2973L30.4952 9.73976C30.7888 9.41349 30.8329 9.20317 30.6828 8.84389C30.5916 8.62556 30.4446 8.4847 30.2296 8.40977C29.9999 8.32977 27.0221 8.2989 19.5226 8.2989H9.1336V7.46857V6.63824H19.7155H30.2973L30.4952 6.41845C30.7888 6.09218 30.8329 5.88186 30.6828 5.52257C30.5916 5.30425 30.4446 5.16338 30.2296 5.08846C29.844 4.95404 8.32819 4.94047 7.99625 5.07449ZM46.4043 10.2581C45.88 10.5197 45.5064 10.8893 45.1708 11.4787C44.9078 11.9404 44.8685 11.9696 44.5574 11.9333C44.3746 11.912 44.1377 11.9412 44.0309 11.9983C43.9242 12.0555 43.3941 12.8619 42.853 13.7905C41.5073 16.0995 41.7042 15.903 41.0542 15.5851C40.54 15.3334 40.4957 15.3276 40.1634 15.4664C39.9214 15.5675 39.7916 15.6971 39.7417 15.8875C39.5952 16.4462 39.718 16.681 40.3681 17.0857L40.7828 17.3438L37.2588 23.4447L33.7347 29.5455L32.8591 31.8794C32.3775 33.1631 31.7216 34.7137 31.4016 35.3251C30.8778 36.3259 30.8198 36.4957 30.8198 37.027C30.8198 37.4108 30.8918 37.7846 31.0257 38.0959L31.2316 38.5747L30.3746 39.6281C29.9032 40.2076 29.487 40.7174 29.4495 40.761C29.4121 40.8047 29.239 40.487 29.0649 40.0551C28.5732 38.8356 27.8973 38.3505 26.9399 38.5301C26.5847 38.5968 25.9322 39.1535 25.6847 39.6012C25.6042 39.7467 25.5441 39.3722 25.4215 37.9604C25.2449 35.9272 25.1548 35.6622 24.4865 35.2081C23.8566 34.78 22.9099 34.9294 22.3983 35.5374C22.0321 35.9725 19.9168 42.3347 20.0121 42.7142C20.098 43.0566 20.6213 43.392 20.9536 43.3176C21.0879 43.2875 21.2857 43.165 21.3931 43.0452C21.5045 42.9211 22.0071 41.5367 22.5622 39.8253C23.0978 38.1741 23.5625 36.8231 23.595 36.8231C23.6274 36.8231 23.7101 37.5594 23.7788 38.4593C23.8488 39.3757 23.9659 40.2454 24.0451 40.4361C24.5778 41.719 26.1469 41.8948 26.946 40.7612C27.1094 40.5294 27.2716 40.3398 27.3065 40.3398C27.3414 40.3398 27.4916 40.6498 27.6402 41.0287C27.9778 41.8893 28.2641 42.2339 28.8158 42.4447C29.3259 42.6395 29.8357 42.5788 30.2945 42.2687C30.4623 42.1553 31.053 41.4859 31.6072 40.7811L32.6149 39.4997L33.1739 39.5401C33.6184 39.5723 33.8402 39.5314 34.2554 39.3414C34.9071 39.0431 35.1644 38.7715 35.9272 37.5769C36.2612 37.054 37.1983 35.8243 38.0097 34.8442L39.485 33.0622L43.0269 26.908C44.9748 23.5232 46.5816 20.7397 46.5973 20.7225C46.6647 20.649 47.4267 21.1121 47.5664 21.3115C47.8832 21.7639 47.7788 22.0165 45.9994 25.1008C45.054 26.7395 44.2575 28.2211 44.2295 28.3932C44.1876 28.6509 44.2331 28.7606 44.4877 29.0152C44.7461 29.2735 44.8466 29.3142 45.1009 29.2633C45.2683 29.2298 45.4621 29.1553 45.5315 29.0975C45.7283 28.9343 49.1846 22.9019 49.288 22.5413C49.6112 21.4145 49.1503 20.339 48.04 19.6291L47.4326 19.2407L48.504 17.387C49.6435 15.4156 49.7651 15.0458 49.3869 14.7035C49.2016 14.5357 49.2041 14.5222 49.5368 13.9169C49.9567 13.153 50.0451 12.5267 49.8347 11.8075C49.5168 10.7212 48.5987 10.054 47.4316 10.0611C46.9959 10.0638 46.6677 10.1267 46.4043 10.2581ZM10.2397 11.9377C9.94488 12.2653 9.90209 12.4745 10.055 12.8406C10.1602 13.0923 10.2819 13.1967 10.5668 13.2797C10.8326 13.3571 13.3819 13.38 19.3747 13.3591L27.8085 13.3297L28.0443 13.0556C28.3523 12.6975 28.3507 12.2682 28.0402 11.9577L27.8004 11.7179H19.119H10.4376L10.2397 11.9377ZM48.01 11.9108C48.3219 12.2227 48.3495 12.5422 48.1076 13.0419C47.9878 13.2895 47.8357 13.5127 47.7696 13.5381C47.6792 13.5727 46.6168 13.0384 46.3644 12.831C46.2954 12.7745 46.8445 11.9205 47.013 11.8223C47.2961 11.6574 47.8015 11.7023 48.01 11.9108ZM46.1936 14.6625C46.9522 15.1002 47.5894 15.4719 47.6096 15.4888C47.6384 15.5131 46.1259 18.2007 46.0002 18.3484C45.9758 18.3771 43.2903 16.8662 43.1412 16.7399C43.1017 16.7065 44.7172 13.8709 44.7771 13.8684C44.7975 13.8677 45.4349 14.225 46.1936 14.6625ZM13.8314 17.587C13.493 17.7234 13.3407 17.9671 13.3372 18.3778C13.3349 18.6517 13.3952 18.7852 13.5915 18.9395C13.8478 19.1412 13.8863 19.142 23.3156 19.142H32.7824L33.0221 18.9022C33.3512 18.5732 33.346 18.0827 33.0099 17.767L32.7578 17.5302L23.4123 17.5112C17.5477 17.4993 13.9791 17.5275 13.8314 17.587ZM44.1783 19.2653C44.6752 19.5467 45.0819 19.816 45.0819 19.8637C45.0819 19.9312 38.912 30.6763 38.5487 31.2414C38.4818 31.3455 38.1573 31.1983 37.0592 30.5659C36.2871 30.1213 35.6419 29.7476 35.6254 29.7356C35.603 29.7192 39.73 22.5262 42.0245 18.5828L42.2646 18.1701L42.7697 18.4619C43.0475 18.6224 43.6813 18.9839 44.1783 19.2653ZM6.42478 22.5309C6.13006 22.5893 5.81229 23.0144 5.81229 23.3502C5.81229 23.5011 5.91838 23.748 6.04801 23.8987L6.28382 24.1728H14.9296H23.5753L23.8274 23.936C24.1747 23.6096 24.1747 23.0753 23.8275 22.7489L23.5754 22.5121L15.109 22.4999C10.4525 22.4933 6.54454 22.5073 6.42478 22.5309ZM26.4728 22.5307C25.8359 22.6931 25.618 23.4926 26.09 23.936L26.342 24.1728H29.5662H32.7904L33.0262 23.8987C33.3275 23.5485 33.3275 23.1366 33.0263 22.7863L32.7907 22.5121L29.7294 22.4965C28.0457 22.4879 26.5802 22.5033 26.4728 22.5307ZM6.25188 26.7818C5.75095 27.069 5.656 27.6886 6.05211 28.0846L6.29183 28.3244H10.7765H15.2611L15.5187 28.0669C15.8685 27.717 15.8585 27.3171 15.4907 26.9493L15.2052 26.6638L10.8262 26.6667C7.71638 26.6689 6.39059 26.7022 6.25188 26.7818ZM17.9253 26.7902C17.3948 27.0585 17.3308 27.7592 17.8029 28.1306C18.0373 28.315 18.2058 28.3244 21.2413 28.3244C24.3129 28.3244 24.4414 28.3169 24.646 28.1263C25.0911 27.7117 25.0041 27.0604 24.4673 26.7887C24.1206 26.6134 18.2724 26.6147 17.9253 26.7902ZM36.5116 32.1584C36.9826 32.4268 37.392 32.6853 37.4214 32.7329C37.4508 32.7805 37.002 33.389 36.4242 34.0851L35.3736 35.3508L34.8306 35.0414C34.532 34.8712 34.167 34.664 34.0196 34.5809C33.8722 34.4978 33.7514 34.4031 33.751 34.3706C33.7503 34.2988 34.8204 31.4391 34.8904 31.3258C34.9175 31.2819 35.1008 31.3414 35.2975 31.4581C35.4943 31.5748 36.0406 31.89 36.5116 32.1584ZM8.93823 32.6749C6.27601 33.2387 4.19667 35.2367 3.50291 37.8976C3.24844 38.8736 3.26895 40.4867 3.54814 41.4588C4.24971 43.9017 6.06354 45.7151 8.50304 46.4128C9.09736 46.5827 9.53284 46.6353 10.3547 46.6363C11.6856 46.638 12.2305 46.5098 13.5147 45.8924C14.3571 45.4875 14.6519 45.2813 15.2821 44.6559C16.5621 43.3858 17.3008 41.8215 17.4076 40.1544C17.4601 39.3346 17.4549 39.3075 17.1916 39.0454C16.6095 38.4658 15.7779 38.9002 15.7748 39.7856C15.7705 41.0042 15.1464 42.4365 14.2139 43.368C13.1331 44.4476 11.8994 44.9674 10.4035 44.9733C7.34361 44.9854 4.9764 42.6182 4.98851 39.5583C4.99437 38.0624 5.51416 36.8287 6.59378 35.7479C7.89358 34.4467 9.77608 33.914 11.5756 34.3381C12.1442 34.4721 12.4416 34.6015 13.7395 35.2799C14.0666 35.4509 14.1248 35.4542 14.4443 35.3208C14.8144 35.1661 14.9372 34.9127 14.8803 34.4205C14.8162 33.8665 13.2432 32.975 11.7846 32.6658C10.9769 32.4945 9.77159 32.4985 8.93823 32.6749ZM33.8078 36.3919C34.1523 36.5845 34.4342 36.7621 34.4342 36.7866C34.4342 36.9453 34.0083 37.6181 33.8276 37.7447C33.3062 38.1099 32.5655 37.7429 32.5536 37.1134C32.5472 36.7687 32.9074 36.0416 33.0847 36.0416C33.1379 36.0416 33.4633 36.1993 33.8078 36.3919ZM13.4318 37.1876C13.3512 37.2185 12.5694 37.9252 11.6945 38.7581L10.1038 40.2727L9.0956 39.2805C8.26791 38.4661 8.03474 38.2884 7.79345 38.2884C7.37927 38.2884 6.98452 38.7033 6.98452 39.1389C6.98452 39.4332 7.11161 39.6047 8.01881 40.5349C8.58764 41.1183 9.20648 41.6684 9.39394 41.7573C9.78653 41.9436 10.4229 41.9665 10.8342 41.8092C11.2116 41.6648 14.2007 38.7156 14.3696 38.3211C14.5593 37.8781 14.3876 37.4313 13.959 37.2521C13.7799 37.1774 13.621 37.1197 13.6058 37.1239C13.5907 37.1281 13.5124 37.1568 13.4318 37.1876Z" fill="#004333"/>
</svg>
