<svg width="60" height="44" viewBox="0 0 60 44" fill="none" xmlns="http://www.w3.org/2000/svg">
<path fill-rule="evenodd" clip-rule="evenodd" d="M1.86757 3.69452L1.91125 7.38904L4.2254 7.43402L6.53955 7.47916V11.6969V15.9148H3.29162H0.0436953V16.8017V17.6885L7.31093 17.7355C14.4955 17.7819 14.5889 17.7868 15.5176 18.1616C17.3733 18.9106 19.0894 21.0003 19.5136 23.0276C19.6126 23.501 19.6937 24.6154 19.6937 25.5042V27.1202H17.7449H15.7961V25.3257C15.7961 23.3443 15.6563 22.8942 14.8226 22.1928C14.5486 21.9622 14.0527 21.6981 13.7206 21.6059C13.3699 21.5084 11.1581 21.4378 8.44771 21.4373L3.77881 21.4363V22.4107V23.3851H5.15918H6.53955V28.7045V34.024L11.5332 39.0068L16.5269 43.9894L29.9246 43.9948L43.3223 44L48.316 39.012L53.3097 34.024V28.7045V23.3851H54.6901H56.0705V22.4107V21.4363L51.4016 21.4373C48.6912 21.4378 46.4793 21.5084 46.1287 21.6059C45.7966 21.6981 45.3007 21.9622 45.0267 22.1928C44.1929 22.8942 44.0531 23.3443 44.0531 25.3257V27.1202H42.1044H40.1556V25.5042C40.1556 23.5673 40.367 22.4739 40.9757 21.2621C41.5741 20.0711 43.105 18.6567 44.3316 18.1616C45.2604 17.7868 45.3538 17.7819 52.5383 17.7355L59.8056 17.6885V16.8017V15.9148H56.5576H53.3097V11.6969V7.47916L55.6239 7.43402L57.938 7.38904L57.9817 3.69452L58.0254 0H29.9246H1.82388L1.86757 3.69452ZM56.2329 3.65392V5.52148H53.8781H51.5234V10.7182V15.9148H48.556C45.173 15.9148 44.0663 16.1258 42.5 17.0687C41.3177 17.7806 39.8695 19.3336 39.304 20.4959C38.5661 22.0127 38.3743 23.1834 38.3717 26.1864L38.3692 28.9066H42.1044H45.8395V26.4428C45.8395 24.3781 45.883 23.9309 46.1082 23.6821C46.3471 23.4182 46.6636 23.3851 48.9502 23.3851H51.5234V28.2964V33.208L47.0992 37.6342L42.675 42.0607H29.9269H17.1786L12.7524 37.6365L8.32591 33.2123V28.2987V23.3851H10.8708C13.011 23.3851 13.463 23.4278 13.7128 23.6538C13.976 23.8919 14.0098 24.2066 14.0098 26.4146V28.9066H17.7449H21.48L21.4776 26.1864C21.4748 23.0358 21.2751 21.9398 20.4004 20.2754C19.7024 18.947 18.183 17.4523 16.8853 16.8174C15.321 16.0519 14.4939 15.9189 11.2896 15.9168L8.32591 15.9148V10.7182V5.52148H5.97116H3.61642V3.65392V1.78636H29.9246H56.2329V3.65392ZM11.9798 9.63985C10.983 9.90261 9.94988 10.3367 9.94988 10.4926C9.94988 10.6288 10.7507 12.0173 10.8293 12.0173C10.8588 12.0173 11.2375 11.8605 11.671 11.6688C13.2196 10.9838 15.1261 11.2505 16.5875 12.3566C17.049 12.7059 17.578 12.9917 17.7629 12.9917C17.9479 12.9917 18.3951 12.7384 18.757 12.4288C20.5371 10.9051 23.2825 10.9402 25.2462 12.512C26.0078 13.1215 26.4105 13.1164 27.1257 12.4884C28.9446 10.8914 31.6296 10.8966 33.6554 12.5011C34.4412 13.1234 34.8521 13.1192 35.5788 12.4811C37.3929 10.8882 40.0739 10.8965 42.1 12.5011C42.8265 13.0765 43.3944 13.1255 43.8248 12.65C44.9481 11.4088 47.3579 10.9332 49.1038 11.6083C49.2985 11.6834 49.4489 11.5131 49.7026 10.9293C49.8888 10.5006 49.9884 10.0959 49.9236 10.0301C49.859 9.96416 49.3052 9.78682 48.693 9.63563C47.1914 9.2652 45.5784 9.48492 44.0518 10.2682L42.9706 10.8229L42.1606 10.3653C41.7149 10.1136 40.852 9.78454 40.2428 9.63433C38.7572 9.26764 37.1332 9.48671 35.6207 10.2576L34.5529 10.8018L33.5795 10.2838C31.4089 9.12846 28.7317 9.20723 26.7987 10.483L26.19 10.8849L25.5807 10.5033C24.3725 9.74638 23.4442 9.49889 21.886 9.5187C20.3187 9.53851 19.4067 9.78812 18.3476 10.4874L17.7322 10.8935L17.2787 10.5707C15.9849 9.64943 13.5599 9.22346 11.9798 9.63985ZM21.48 16.808V17.7012H29.9246H38.3692V16.808V15.9148H29.9246H21.48V16.808ZM25.2151 21.5175V22.4107H29.9246H34.6341V21.5175V20.6243H29.9246H25.2151V21.5175ZM0.0375239 21.4964C-0.00372476 21.5373 -0.0123312 21.9828 0.0185241 22.4859L0.0747133 23.401L0.911704 23.3524L1.74886 23.3039V22.4107V21.5175L0.930704 21.4696C0.480541 21.4433 0.0786102 21.4553 0.0375239 21.4964ZM58.0851 21.6614C58.0376 21.7851 58.0216 22.2053 58.0496 22.5952L58.1004 23.3039L58.9376 23.3524L59.7746 23.401L59.8307 22.4859C59.8616 21.9828 59.8564 21.5406 59.8191 21.5037C59.7819 21.4667 59.396 21.4363 58.9614 21.4363C58.438 21.4363 58.1423 21.5123 58.0851 21.6614Z" fill="#004333"/>
</svg>
