<svg width="49" height="50" viewBox="0 0 49 50" fill="none" xmlns="http://www.w3.org/2000/svg">
<path fill-rule="evenodd" clip-rule="evenodd" d="M0.285449 0.285449L0 0.570898V23.3269V46.0828L0.235449 46.3568C0.470605 46.6305 0.472754 46.6309 1.88848 46.6624L3.30615 46.6938L3.3376 48.1115C3.36914 49.5272 3.36953 49.5294 3.64316 49.7645L3.91719 50H21.2532H38.5893L38.8747 49.7146L39.1602 49.4291V26.6731V3.91719L38.9245 3.64316L38.689 3.36914L34.6896 3.3416L30.6902 3.31406L29.0265 1.81572C28.1114 0.991602 27.2607 0.245898 27.1362 0.158691C26.9298 0.0141602 25.7375 0 13.7403 0H0.570898L0.285449 0.285449ZM25.8819 5.27344C25.9105 7.23389 25.9435 8.84775 25.9552 8.85977C25.967 8.87187 26.1063 8.94873 26.2647 9.03066C26.5085 9.15674 27.139 9.17969 30.3662 9.17969H34.1797V27.0996V45.0195H17.9199H1.66016V23.3395V1.65938L13.7451 1.68418L25.8301 1.70898L25.8819 5.27344ZM30.2967 5.2583C31.6267 6.4584 32.7148 7.4582 32.7148 7.47998C32.7148 7.50176 31.5503 7.51953 30.127 7.51953H27.5391V5.16387C27.5391 2.94004 27.5485 2.81562 27.7088 2.94219C27.8021 3.01582 28.9667 4.05811 30.2967 5.2583ZM44.2353 3.46484C43.6488 3.65283 43.0381 4.18965 42.7621 4.75977C42.5787 5.13848 42.531 5.42822 42.4977 6.36318C42.4583 7.4666 42.4493 7.50615 42.2258 7.5623C42.0986 7.59414 41.9235 7.72881 41.8366 7.86143C41.6927 8.08115 41.6786 9.53125 41.6786 24.1699C41.6786 38.8086 41.6927 40.2587 41.8366 40.4784C41.9235 40.611 42.1008 40.7462 42.2305 40.7787C42.4643 40.8374 42.4666 40.8506 42.4979 42.2376C42.5276 43.563 42.5419 43.6506 42.766 43.8889C42.9672 44.1028 43.0872 44.1406 43.5646 44.1406H44.1262L44.1578 45.549C44.1878 46.8837 44.2019 46.9707 44.4262 47.2092C44.7143 47.5154 45.1884 47.5438 45.5214 47.2745C45.7403 47.0976 45.7544 47.0153 45.8008 45.6388L45.8496 44.1895L46.4689 44.1402C47.4122 44.0651 47.4609 43.971 47.4609 42.2255C47.4609 41.0111 47.4818 40.8203 47.6149 40.8203C47.6996 40.8203 47.8974 40.6919 48.0544 40.5349L48.3398 40.2494V24.2198C48.3398 12.2203 48.3113 8.13662 48.2263 7.97695C48.0808 7.70381 47.8489 7.52656 47.6318 7.52266C47.4791 7.51982 47.4609 7.39961 47.4609 6.39336C47.4609 5.18936 47.3762 4.84971 46.9293 4.26387C46.3777 3.54072 45.1421 3.17422 44.2353 3.46484ZM37.5 26.6602V48.3398H21.2402H4.98047V47.5098V46.6797H20.1247H35.2689L35.5544 46.3942L35.8398 46.1088V27.1151C35.8398 16.6686 35.8147 8.05606 35.7841 7.97617C35.7534 7.89629 35.0283 7.20459 34.1728 6.43916C33.3172 5.67363 32.6172 5.03232 32.6172 5.01396C32.6172 4.99551 33.7158 4.98047 35.0586 4.98047H37.5V26.6602ZM45.2737 5.08193C45.7286 5.25488 45.7943 5.43564 45.7977 6.52246L45.8008 7.52744L44.9951 7.49902L44.1895 7.4707L44.1587 6.73828C44.1199 5.81709 44.2585 5.32188 44.608 5.13213C44.9314 4.95654 44.9419 4.95576 45.2737 5.08193ZM46.6797 14.5996V20.0195H45.0195H43.3594V14.5996V9.17969H45.0195H46.6797V14.5996ZM17.5068 10.0296C17.1787 10.093 16.9344 10.4733 16.8075 11.1184C16.5225 12.5674 14.7734 13.4533 13.4766 12.8056C13.2349 12.6849 12.8757 12.4988 12.6784 12.3922C12.3541 12.2167 12.2886 12.2113 11.9948 12.3354C11.5887 12.5071 10.6755 13.4656 10.5887 13.8115C10.5386 14.0111 10.6093 14.2085 10.8983 14.6767C11.1996 15.1646 11.2801 15.3979 11.3094 15.8691C11.3908 17.178 10.6401 18.2107 9.40186 18.4933C8.48301 18.7028 8.35645 18.8618 8.32031 19.8513C8.27783 21.0174 8.43525 21.2874 9.27734 21.4926C10.3991 21.7661 10.6739 21.9773 11.09 22.8861C11.3078 23.3619 11.3434 23.5567 11.312 24.1042C11.2807 24.6529 11.2219 24.8325 10.9401 25.2413C10.4211 25.9941 10.4658 26.231 11.2815 27.053C12.0854 27.8631 12.2579 27.8955 13.0865 27.3922C13.3963 27.204 13.8458 27.0232 14.0854 26.9903C14.9371 26.8736 16.206 27.4545 16.5492 28.1183C16.6317 28.2777 16.7636 28.6852 16.8422 29.0234C17.0431 29.888 17.1847 29.9805 18.3082 29.9805C19.451 29.9805 19.6592 29.8498 19.8288 29.0264C20.0205 28.0966 20.3466 27.6661 21.1736 27.2515C22.0456 26.8143 22.9265 26.8971 23.7328 27.492C23.9343 27.6406 24.1928 27.7344 24.4011 27.7344C24.6905 27.7344 24.8392 27.6359 25.4074 27.0676C26.2046 26.2704 26.2389 26.0784 25.7338 25.2396C25.2032 24.3584 25.1657 23.6835 25.5993 22.8182C26.0054 22.0076 26.4415 21.6796 27.3662 21.489C28.1893 21.3194 28.3203 21.1108 28.3203 19.9709C28.3203 19.1273 28.3038 19.0531 28.0629 18.8121C27.9213 18.6705 27.7314 18.5547 27.6411 18.5547C27.5508 18.5547 27.2394 18.4842 26.9491 18.3979C26.2662 18.1951 25.7817 17.7109 25.4937 16.9434C25.1931 16.1421 25.2583 15.5266 25.7254 14.7577C26.2272 13.9315 26.1996 13.7774 25.4034 12.9604C24.614 12.1505 24.4147 12.1072 23.6471 12.5796C22.8865 13.0476 22.4014 13.1393 21.7255 12.9428C20.6302 12.6243 19.9966 12.0084 19.8638 11.1328C19.7683 10.5039 19.5821 10.1931 19.2267 10.0691C18.9275 9.96494 17.9573 9.94258 17.5068 10.0296ZM18.5366 12.4268C19.1185 13.7226 20.7109 14.6694 22.3145 14.673C22.822 14.6742 23.2282 14.6188 23.4738 14.5151C24.0079 14.2896 24.0457 14.3094 23.87 14.7217C23.6194 15.3096 23.5753 16.4744 23.78 17.099C24.2156 18.4285 24.7825 19.1725 25.7718 19.7128L26.2995 20.0011L25.7929 20.2578C25.1673 20.5748 24.5726 21.1755 24.2456 21.8207C23.6062 23.0824 23.4847 24.0184 23.8202 25.0964C23.9901 25.6425 23.9924 25.6919 23.8446 25.6284C22.9958 25.2641 21.9662 25.2049 21.1801 25.4754C19.8622 25.9288 19.057 26.5465 18.5947 27.4588L18.3351 27.9711L18.0927 27.4942C17.2661 25.8678 14.9416 24.8913 13.2568 25.4628C12.6864 25.6563 12.6139 25.6276 12.7988 25.282C12.8558 25.1757 12.9413 24.8494 12.9889 24.5569C13.2561 22.9154 12.1751 20.8169 10.7422 20.1953L10.3027 20.0046L10.8149 19.7606C12.1048 19.1465 13.014 17.5792 13.0069 15.9821C13.0052 15.5968 12.9342 15.0902 12.8485 14.8529C12.7631 14.6163 12.7102 14.4057 12.731 14.385C12.7517 14.3643 12.9389 14.4113 13.147 14.4896C14.8666 15.136 17.3329 14.1403 18.0878 12.4947C18.2097 12.2291 18.3186 12.0117 18.3298 12.0117C18.341 12.0117 18.4341 12.1984 18.5366 12.4268ZM17.0909 16.9151C16.3396 17.2035 15.5327 18.0254 15.2408 18.7995C14.9344 19.6123 14.987 20.72 15.3675 21.4633C15.718 22.1479 16.3023 22.7164 16.9777 23.0297C17.7773 23.4006 18.856 23.3945 19.6777 23.0146C20 22.8656 20.4337 22.5812 20.6415 22.3826C21.1087 21.936 21.5506 21.0374 21.635 20.3626C21.7611 19.3522 21.2322 18.0688 20.4236 17.4236C19.5268 16.708 18.1698 16.501 17.0909 16.9151ZM19.0333 18.5009C20.0349 19.0188 20.2877 20.2998 19.552 21.1284C19.3263 21.3825 18.6687 21.6749 18.317 21.6775C17.228 21.6856 16.4023 20.4251 16.8034 19.3667C17.1188 18.5341 18.249 18.0953 19.0333 18.5009ZM46.6797 24.1699V26.6602H45.0195H43.3594V24.1699V21.6797H45.0195H46.6797V24.1699ZM46.6797 33.7402V39.1602H45.0195H43.3594V33.7402V28.3203H45.0195H46.6797V33.7402ZM4.45664 32.777C4.13203 33.1017 4.12402 33.4955 4.43486 33.8568L4.67051 34.1309L11.4905 34.1585C15.2415 34.1736 18.4082 34.1621 18.5275 34.1328C19.1277 33.9857 19.3414 33.1997 18.9009 32.7593L18.6612 32.5195H11.6877H4.71416L4.45664 32.777ZM21.1534 32.7393C20.7342 33.1164 20.8022 33.7814 21.2856 34.0314C21.6752 34.2329 23.3372 34.2366 23.7234 34.0368C24.1978 33.7915 24.2766 33.1544 23.8813 32.7593C23.6547 32.5325 23.5808 32.5195 22.5196 32.5195C21.4936 32.5195 21.3768 32.5383 21.1534 32.7393ZM26.1187 32.7593C25.7234 33.1544 25.8022 33.7915 26.2766 34.0368C26.634 34.2217 30.8439 34.2468 31.1832 34.0661C31.699 33.7913 31.8039 33.1622 31.4009 32.7593L31.1612 32.5195H28.7598H26.3583L26.1187 32.7593ZM4.68857 36.7886C4.49258 36.8889 4.3082 37.077 4.25469 37.2314C4.11816 37.625 4.28682 38.006 4.68857 38.2114C4.99111 38.3661 5.27549 38.3825 7.22656 38.3579C9.61728 38.3276 9.77148 38.2944 9.9541 37.7706C10.0147 37.5966 10.0147 37.4034 9.9541 37.2294C9.77148 36.7056 9.61728 36.6724 7.22656 36.6421C5.27549 36.6175 4.99111 36.6339 4.68857 36.7886ZM12.3311 36.6897C12.0368 36.7466 11.7188 37.1715 11.7188 37.5077C11.7188 37.6586 11.8224 37.9025 11.949 38.0497C12.1613 38.2966 12.2468 38.3206 13.0477 38.3587C14.2173 38.4144 14.7041 38.2783 14.9146 37.837C15.0636 37.5245 15.0636 37.4756 14.915 37.164C14.795 36.9124 14.6617 36.8021 14.3842 36.7251C14.0256 36.6255 12.7751 36.604 12.3311 36.6897ZM17.1886 36.7907C16.7867 36.9938 16.6179 37.3742 16.7547 37.7686C16.8086 37.924 16.9913 38.1096 17.1886 38.2093C17.5059 38.3695 17.999 38.3796 24.3493 38.3558L31.1693 38.3301L31.405 38.0561C31.5364 37.9032 31.6406 37.6573 31.6406 37.5C31.6406 37.3427 31.5364 37.0968 31.405 36.9439L31.1693 36.6699L24.3493 36.6442C17.999 36.6204 17.5059 36.6305 17.1886 36.7907ZM4.72236 40.9172C4.18271 41.135 4.04512 41.8114 4.45664 42.223L4.71416 42.4805H11.6877H18.6612L18.9009 42.2407C19.3039 41.8378 19.199 41.2087 18.6832 40.9339C18.4265 40.7972 5.05947 40.7812 4.72236 40.9172ZM21.2659 40.9731C20.8016 41.2251 20.7433 41.8918 21.1534 42.2607C21.3768 42.4617 21.4936 42.4805 22.5196 42.4805C23.5808 42.4805 23.6547 42.4675 23.8813 42.2407C24.2766 41.8456 24.1978 41.2085 23.7234 40.9632C23.3421 40.7659 21.6351 40.7729 21.2659 40.9731ZM26.3184 40.9331C25.8134 41.2093 25.7172 41.8394 26.1187 42.2407L26.3583 42.4805H28.7598H31.1612L31.4009 42.2407C31.8039 41.8378 31.699 41.2087 31.1832 40.9339C30.898 40.782 26.5959 40.7813 26.3184 40.9331ZM45.8008 41.6504V42.4805H44.9707H44.1406V41.6504V40.8203H44.9707H45.8008V41.6504Z" fill="#004333"/>
</svg>
