<svg width="51" height="44" viewBox="0 0 51 44" fill="none" xmlns="http://www.w3.org/2000/svg">
<path fill-rule="evenodd" clip-rule="evenodd" d="M12.9807 0.19351C11.759 0.513605 11.3256 0.833012 9.03132 3.10422L6.9149 5.19953H3.9976H1.08041V8.88273V12.5659H3.24122C4.42967 12.5659 5.40204 12.5822 5.40204 12.6022C5.40204 12.622 5.64513 14.2612 5.94224 16.2447C6.23935 18.2283 6.48244 19.8694 6.48244 19.8917C6.48244 19.9141 5.02389 19.9324 3.24122 19.9324H0V20.9636V21.9949H7.3173H14.6346V20.9636V19.9324H11.5898C9.34238 19.9324 8.54504 19.9025 8.54504 19.8182C8.54504 19.6715 7.28509 11.1315 7.21054 10.7734L7.15436 10.5033H5.14873H3.143V8.93184V7.36034H5.42404H7.70497L10.0649 5.00839C12.0405 3.0394 12.5206 2.61166 13.014 2.38104L13.6033 2.10563H25.144H36.6847L37.274 2.38104C37.7674 2.61166 38.2475 3.0394 40.2232 5.00839L42.5831 7.36034H44.864H47.145V8.93184V10.5033H45.1393H43.1337L43.0768 10.7734C42.9799 11.2344 42.2341 16.2794 42.2341 16.4747C42.2341 16.6348 42.3651 16.6761 43.221 16.7851C43.7638 16.8543 44.2202 16.8946 44.2351 16.8747C44.25 16.8548 44.3608 16.1534 44.4811 15.3161C44.6015 14.4787 44.7463 13.5175 44.803 13.1798L44.9061 12.5659H47.0569H49.2076V8.88273V5.19953H46.292H43.3765L41.2092 3.05944C39.364 1.23728 38.944 0.871711 38.3826 0.599546C37.101 -0.0218841 37.5214 -0.00302623 25.0458 0.00100074C14.1764 0.00463483 13.6714 0.0126891 12.9807 0.19351ZM10.5094 11.5346V12.5659H25.144H39.7786V11.5346V10.5033H25.144H10.5094V11.5346ZM24.0878 27.2251L24.1127 38.7413H25.144H26.1753L26.2003 27.2251L26.2252 15.7089H25.144H24.0628L24.0878 27.2251ZM34.2293 20.1182C32.5125 20.6188 31.2667 21.8022 30.6617 23.5073C30.4222 24.1819 30.4139 24.2891 30.4064 26.7586L30.3987 29.3122H31.43H32.4613L32.5104 26.7586L32.5595 24.2049L32.8509 23.6789C33.2223 23.0083 33.8579 22.449 34.5377 22.1946C35.0575 22.0001 35.2704 21.9949 42.6798 21.9949H50.288V20.9636V19.9324L42.5533 19.9393C35.4905 19.9457 34.7674 19.9612 34.2293 20.1182ZM0 26.1692V27.2005H3.77052H7.54095L7.59782 27.5198C7.62915 27.6954 8.07801 30.7119 8.59542 34.2232C9.11274 37.7345 9.5836 40.7621 9.64175 40.9512C10.104 42.4555 11.3769 43.6152 12.8785 43.9C13.6258 44.0417 36.7643 44.0289 37.4411 43.8863C38.9767 43.563 40.2591 42.369 40.6481 40.9004C40.7051 40.6852 41.175 37.6363 41.6922 34.125C42.2095 30.6136 42.657 27.6192 42.6868 27.4706L42.7408 27.2005H46.5144H50.288V26.1692V25.1379H42.9707H35.6534V27.2497V29.3614H36.6847H37.716V28.281V27.2005H39.1402C40.5006 27.2005 40.5644 27.2094 40.5644 27.3978C40.5644 27.9343 38.6671 40.3374 38.5342 40.6696C38.3468 41.138 37.7526 41.6654 37.2389 41.8193C36.6946 41.9824 13.5934 41.9824 13.0492 41.8193C12.5477 41.6692 11.9626 41.1581 11.7552 40.6894C11.6048 40.3493 9.72366 28.0871 9.72366 27.4468V27.2005H12.1791H14.6346V26.1692V25.1379H7.3173H0V26.1692Z" fill="#004333"/>
</svg>
