<svg width="50" height="50" viewBox="0 0 50 50" fill="none" xmlns="http://www.w3.org/2000/svg">
<path fill-rule="evenodd" clip-rule="evenodd" d="M0.255729 0.255729L0 0.511354V9.16667V17.822L0.255729 18.0776L0.511354 18.3333H2.96281H5.41427L6.62729 19.9495C8.33979 22.2308 8.32687 22.2308 10.0394 19.9495L11.2524 18.3333H13.7039H16.1553L16.4109 18.0776L16.6667 17.822V9.16667V0.511354L16.4109 0.255729L16.1553 0H8.33333H0.511354L0.255729 0.255729ZM33.5891 0.255729L33.3333 0.511354V9.16667V17.822L33.5891 18.0776L33.8447 18.3333H36.2961H38.7476L39.9606 19.9495C41.6731 22.2308 41.6602 22.2308 43.3727 19.9495L44.5857 18.3333H47.0372H49.4886L49.7443 18.0776L50 17.822V9.16667V0.511354L49.7443 0.255729L49.4886 0H41.6667H33.8447L33.5891 0.255729ZM15 9.16667V16.6667H12.7803C11.1662 16.6667 10.5134 16.7022 10.3878 16.7969C10.2927 16.8685 9.81219 17.4661 9.3201 18.125C8.82792 18.7839 8.38396 19.3229 8.33333 19.3229C8.28271 19.3229 7.83875 18.7839 7.34656 18.125C6.85448 17.4661 6.37396 16.8685 6.27885 16.7969C6.15323 16.7022 5.50042 16.6667 3.88635 16.6667H1.66667V9.16667V1.66667H8.33333H15V9.16667ZM48.3333 9.16667V16.6667H46.1136C44.4996 16.6667 43.8468 16.7022 43.7211 16.7969C43.626 16.8685 43.1455 17.4661 42.6534 18.125C42.1612 18.7839 41.7173 19.3229 41.6667 19.3229C41.616 19.3229 41.1721 18.7839 40.6799 18.125C40.1878 17.4661 39.7073 16.8685 39.6122 16.7969C39.4866 16.7022 38.8337 16.6667 37.2197 16.6667H35V9.16667V1.66667H41.6667H48.3333V9.16667ZM3.33333 4.16667V5H4.16667H5V4.16667V3.33333H4.16667H3.33333V4.16667ZM6.66667 4.16667V5H8.33333H10V4.16667V3.33333H8.33333H6.66667V4.16667ZM11.6667 4.16667V5H12.5H13.3333V4.16667V3.33333H12.5H11.6667V4.16667ZM36.6667 4.16667V5H41.6667H46.6667V4.16667V3.33333H41.6667H36.6667V4.16667ZM3.33333 7.5V8.33333H8.33333H13.3333V7.5V6.66667H8.33333H3.33333V7.5ZM36.6667 7.5V8.33333H41.6667H46.6667V7.5V6.66667H41.6667H36.6667V7.5ZM3.33333 10.8333V11.6667H8.33333H13.3333V10.8333V10H8.33333H3.33333V10.8333ZM23.7617 10.1647C21.1283 10.8728 19.4866 13.6102 20.1554 16.1778C20.3799 17.0396 20.7807 17.7694 21.3747 18.3973L21.8948 18.9473L21.5095 19.1083C20.384 19.5785 18.8171 20.939 18.0136 22.1435C17.4951 22.9208 16.9959 24.1965 16.8143 25.2083C16.7371 25.638 16.6723 26.7045 16.6703 27.5781L16.6667 29.1667H16.0891C15.6146 29.1667 15.4656 29.2124 15.2557 29.4224C15.1151 29.563 15 29.7408 15 29.8175C15 29.8942 14.9062 30.867 14.7917 31.9792C14.6771 33.0914 14.5833 34.0901 14.5833 34.1985C14.5833 34.3552 14.4606 34.2905 13.9844 33.8825C13.2162 33.2246 12.5111 32.7476 11.9194 32.4858L11.4498 32.2781L11.992 31.6859C13.7724 29.7411 13.7442 26.8097 11.9267 24.9043C9.99729 22.8816 6.92063 22.8167 4.88771 24.7558C2.90469 26.6473 2.825 29.7397 4.70802 31.7306L5.22813 32.2806L4.84281 32.4417C4.17573 32.7203 3.09156 33.502 2.4126 34.1935C1.56333 35.0588 1.01312 35.8939 0.611667 36.9271C0.0434375 38.3895 0.00760415 38.8299 0.00364582 44.4057L0 49.4886L0.255729 49.7443L0.511354 50H25H49.4886L49.7443 49.7443L50 49.4886V44.4778C50 39.0464 49.9596 38.4983 49.4561 37.1055C48.7468 35.1429 47.051 33.2814 45.2447 32.4823L44.7769 32.2754L45.2945 31.728C46.9275 30.0014 47.1085 27.3951 45.7318 25.4323C44.3209 23.4211 41.6797 22.7636 39.415 23.86C39.1499 23.9883 38.6337 24.3732 38.2681 24.7152C36.2614 26.5925 36.158 29.6607 38.0327 31.7119L38.5549 32.2833L38.1932 32.4345C37.6518 32.6607 36.6877 33.2982 36.0356 33.8611L35.4567 34.361L35.3273 33.0399C35.0202 29.902 34.9799 29.658 34.7271 29.4051C34.5359 29.214 34.3741 29.1667 33.9109 29.1667H33.3333L33.3297 27.5781C33.3242 25.1404 32.9939 23.7785 32.0354 22.2408C31.2843 21.0359 29.6428 19.5897 28.4702 19.0998L28.1052 18.9473L28.6253 18.3973C30.465 16.4522 30.4445 13.5117 28.5775 11.5544C27.3431 10.2602 25.4441 9.71219 23.7617 10.1647ZM36.6667 10.8333V11.6667H41.6667H46.6667V10.8333V10H41.6667H36.6667V10.8333ZM26.4062 11.9875C28.8751 13.1591 28.9656 16.5863 26.5625 17.9081C25.9345 18.2535 25.8212 18.2804 25 18.279C24.1923 18.2775 24.0568 18.2461 23.4557 17.9221C20.865 16.5251 21.169 12.8478 23.9589 11.8341C24.6162 11.5952 25.7262 11.6648 26.4062 11.9875ZM3.33333 14.1667V15H8.33333H13.3333V14.1667V13.3333H8.33333H3.33333V14.1667ZM36.6667 14.1667V15H37.5H38.3333V14.1667V13.3333H37.5H36.6667V14.1667ZM40 14.1667V15H41.6667H43.3333V14.1667V13.3333H41.6667H40V14.1667ZM45 14.1667V15H45.8333H46.6667V14.1667V13.3333H45.8333H45V14.1667ZM26.4062 20.1561C28.2936 20.5511 30.0461 21.9071 30.9165 23.6458C31.509 24.8298 31.6626 25.6372 31.6649 27.5781L31.6667 29.1667H30.9293H30.1918L30.2517 28.8802C30.3603 28.3608 30.8333 25.1219 30.8333 24.8976C30.8333 24.7769 30.7182 24.563 30.5776 24.4224L30.322 24.1667H25H19.678L19.4224 24.4224C19.2818 24.563 19.1667 24.7769 19.1667 24.8976C19.1667 25.1219 19.6397 28.3608 19.7483 28.8802L19.8082 29.1667H19.0707H18.3333L18.3351 27.5781C18.3373 25.6485 18.49 24.8397 19.0769 23.6494C20.3873 20.991 23.4408 19.5357 26.4062 20.1561ZM9.73958 25.3208C12.2084 26.4924 12.299 29.9196 9.89583 31.2415C9.26781 31.5869 9.15458 31.6137 8.33333 31.6123C7.52562 31.6108 7.3901 31.5795 6.78906 31.2554C4.19833 29.8584 4.50229 26.1811 7.29219 25.1674C7.94958 24.9285 9.05958 24.9981 9.73958 25.3208ZM43.0729 25.3208C45.5418 26.4924 45.6323 29.9196 43.2292 31.2415C42.6011 31.5869 42.4879 31.6137 41.6667 31.6123C40.859 31.6108 40.7234 31.5795 40.1224 31.2554C37.5317 29.8584 37.8356 26.1811 40.6255 25.1674C41.2829 24.9285 42.3929 24.9981 43.0729 25.3208ZM28.7348 27.7865C28.5724 28.8607 28.4092 29.9857 28.3721 30.2865L28.3047 30.8333H25H21.6953L21.6279 30.2865C21.5908 29.9857 21.4276 28.8607 21.2652 27.7865L20.97 25.8333H25H29.03L28.7348 27.7865ZM20.0385 31.0677C20.073 31.1967 20.102 31.4346 20.1027 31.5966C20.1036 31.7818 20.2171 32.004 20.4086 32.1955L20.7131 32.5H24.9968H29.2803L29.5254 32.2549C29.6733 32.1069 29.819 31.7766 29.8927 31.4216L30.0148 30.8333H31.7115H33.4081L33.5249 31.8605C33.6375 32.8511 34.2118 38.5496 34.3103 39.6541L34.3584 40.1935L32.3615 40.9876C31.2581 41.4264 30.283 41.8776 30.1823 41.9961C30.0264 42.1795 30 42.4358 30 43.7663C30 45.2791 30.0071 45.3291 30.2557 45.5776C30.5724 45.8944 30.6435 45.8932 32.9167 45.536C33.9193 45.3784 34.753 45.2805 34.7695 45.3185C34.7858 45.3565 34.8576 46.0503 34.929 46.8604L35.0585 48.3333H25H14.9415L15.076 46.8044C15.1501 45.9634 15.2219 45.2659 15.2355 45.2544C15.2493 45.2427 16.1276 45.3699 17.1875 45.5369C18.2474 45.7039 19.2212 45.8143 19.3516 45.7822C19.482 45.7501 19.6811 45.6314 19.7943 45.5182C19.9807 45.3318 20 45.167 20 43.7616C20 42.4356 19.9735 42.1795 19.8177 41.9961C19.717 41.8776 18.7418 41.4263 17.638 40.9874L15.6405 40.1932L15.6875 39.8622C15.7543 39.3913 16.5625 31.2089 16.5625 31.0036C16.5625 30.8529 16.7591 30.8333 18.2691 30.8333C19.9508 30.8333 19.9767 30.8368 20.0385 31.0677ZM9.73958 33.4895C10.9035 33.733 12.0916 34.3799 12.9668 35.2467C13.3795 35.6552 13.8482 36.2157 14.0084 36.4922L14.2998 36.9948L14.1769 38.2065C14.1094 38.8729 14.036 39.4361 14.0141 39.4581C13.9921 39.4802 13.4549 39.2972 12.8203 39.0516L11.6667 38.6049V37.6358V36.6667H10.8333H10V38.0497C10 39.0653 10.0386 39.488 10.1455 39.6406C10.2392 39.7743 11.7254 40.4211 14.3122 41.4541L18.3333 43.0597V43.5422V44.0247L15.8594 43.6434C14.4987 43.4339 12.3724 43.1065 11.1344 42.916L8.88323 42.5698L8.16854 41.1286C7.77552 40.336 7.41604 39.6875 7.36979 39.6875C7.29667 39.6875 6.04385 40.2891 5.9574 40.3657C5.93969 40.3815 6.3274 41.1977 6.81896 42.1796C7.43948 43.4191 7.78375 43.9947 7.9449 44.0627C8.0726 44.1165 9.36427 44.3452 10.8152 44.5708C12.2661 44.7965 13.4754 45.0032 13.5025 45.0302C13.5539 45.0817 13.3599 47.6918 13.2744 48.099L13.2252 48.3333H7.44594H1.66667L1.66844 43.8281C1.67052 38.7139 1.7026 38.418 2.41021 36.9827C3.72062 34.3244 6.77417 32.8691 9.73958 33.4895ZM43.0729 33.4895C44.9603 33.8845 46.7128 35.2404 47.5831 36.9792C48.2972 38.4058 48.3295 38.7017 48.3316 43.8281L48.3333 48.3333H42.5541H36.7748L36.7261 48.099C36.6406 47.6876 36.4377 45.0901 36.4872 45.0406C36.5133 45.0144 37.7246 44.8075 39.1789 44.5807C40.6331 44.354 41.9274 44.1226 42.0551 44.0667C42.2145 43.9968 42.5675 43.4052 43.181 42.1796C43.6726 41.1977 44.0603 40.3815 44.0426 40.3657C43.9561 40.2891 42.7033 39.6875 42.6302 39.6875C42.584 39.6875 42.2228 40.3395 41.8277 41.1362L41.1092 42.585L39.9556 42.763C39.3211 42.8609 37.1966 43.1845 35.2344 43.4821L31.6667 44.0231V43.5415V43.0597L35.6878 41.4541C38.2746 40.4211 39.7608 39.7743 39.8545 39.6406C39.9614 39.488 40 39.0653 40 38.0497V36.6667H39.1667H38.3333V37.6401V38.6134L37.1867 39.0628C36.5559 39.31 36.0217 39.493 35.9994 39.4696C35.977 39.4462 35.9078 38.8652 35.8456 38.1784L35.7325 36.9298L36.0899 36.3915C36.6261 35.5837 37.0474 35.1403 37.7644 34.6287C39.3631 33.4879 41.1906 33.0957 43.0729 33.4895Z" fill="#004333"/>
</svg>
