<svg width="22" height="22" viewBox="0 0 22 22" fill="none" xmlns="http://www.w3.org/2000/svg">
<path d="M21.5 1C21.5 0.723858 21.2761 0.5 21 0.5H16.5C16.2239 0.5 16 0.723858 16 1C16 1.27614 16.2239 1.5 16.5 1.5H20.5V5.5C20.5 5.77614 20.7239 6 21 6C21.2761 6 21.5 5.77614 21.5 5.5V1ZM0.5 21C0.5 21.2761 0.723858 21.5 1 21.5H5.5C5.77614 21.5 6 21.2761 6 21C6 20.7239 5.77614 20.5 5.5 20.5H1.5V16.5C1.5 16.2239 1.27614 16 1 16C0.723858 16 0.5 16.2239 0.5 16.5V21ZM21 21.5C21.2761 21.5 21.5 21.2761 21.5 21V16.5C21.5 16.2239 21.2761 16 21 16C20.7239 16 20.5 16.2239 20.5 16.5V20.5H16.5C16.2239 20.5 16 20.7239 16 21C16 21.2761 16.2239 21.5 16.5 21.5H21ZM1 0.5C0.723858 0.5 0.5 0.723858 0.5 1V5.5C0.5 5.77614 0.723858 6 1 6C1.27614 6 1.5 5.77614 1.5 5.5V1.5H5.5C5.77614 1.5 6 1.27614 6 1C6 0.723858 5.77614 0.5 5.5 0.5H1ZM20.6464 0.646447L10.6464 10.6464L11.3536 11.3536L21.3536 1.35355L20.6464 0.646447ZM10.6464 10.6464L0.646447 20.6464L1.35355 21.3536L11.3536 11.3536L10.6464 10.6464ZM10.6464 11.3536L20.6464 21.3536L21.3536 20.6464L11.3536 10.6464L10.6464 11.3536ZM11.3536 10.6464L1.35355 0.646447L0.646447 1.35355L10.6464 11.3536L11.3536 10.6464Z" fill="#00AE84"/>
</svg>
