<svg width="50" height="50" viewBox="0 0 50 50" fill="none" xmlns="http://www.w3.org/2000/svg">
<path fill-rule="evenodd" clip-rule="evenodd" d="M19.7266 2.86934V5.73867L18.5303 6.14658C17.8723 6.371 16.8345 6.79912 16.2239 7.09805L15.114 7.6415L13.0742 5.60352L11.0345 3.56553L7.3 7.3L3.56553 11.0345L5.61426 13.085L7.66299 15.1354L7.34707 15.71C7.17344 16.026 7.03125 16.3241 7.03125 16.3725C7.03125 16.4619 8.28711 17.0475 8.33457 16.9802C8.34883 16.9599 8.61397 16.4856 8.92383 15.9261L9.48711 14.9089L7.57568 12.9956L5.66426 11.0824L8.37461 8.37344L11.085 5.66436L12.998 7.57754L14.9112 9.49072L15.8148 8.97686C17.097 8.24795 18.6913 7.58203 20.0352 7.21426L21.1914 6.89785V4.18135V1.46484H25H28.8086V4.18135V6.89785L29.9648 7.21426C31.3086 7.58203 32.9029 8.24795 34.1848 8.97666L35.088 9.49023L37.0028 7.57725L38.9176 5.66426L41.6266 8.37461L44.3356 11.085L42.4225 12.998L40.5093 14.9112L41.0231 15.8148C41.752 17.097 42.418 18.6913 42.7857 20.0352L43.1021 21.1914H45.8187H48.5352V25V28.8086H45.8187H43.1021L42.7857 29.9648C42.418 31.3087 41.752 32.903 41.0231 34.1852L40.5093 35.0888L42.4225 37.002L44.3356 38.915L41.6266 41.6254L38.9176 44.3357L37.0028 42.4228L35.088 40.5098L34.1848 41.0233C32.9029 41.7521 31.3086 42.418 29.9648 42.7857L28.8086 43.1021V45.8187V48.5352H25H21.1914V45.8187V43.1021L20.0352 42.7857C18.6914 42.418 17.0971 41.7521 15.8152 41.0233L14.912 40.5098L12.9972 42.4228L11.0824 44.3357L8.37344 41.6254L5.66436 38.915L7.57754 37.002L9.49072 35.0888L8.97686 34.1852C8.24795 32.903 7.58203 31.3087 7.21426 29.9648L6.89785 28.8086H4.18135H1.46484V25V21.1914H4.17764H6.89053L7.24502 19.9463C7.44004 19.2614 7.63008 18.6246 7.66728 18.5312C7.72109 18.3963 7.64023 18.3204 7.27646 18.1646C6.35234 17.7684 6.40742 17.7401 6.05732 18.7909L5.74561 19.7266H2.87285H0V25V30.2734H2.86934H5.73867L6.14658 31.4697C6.371 32.1277 6.79912 33.1655 7.09805 33.7761L7.6415 34.886L5.60352 36.9258L3.56553 38.9655L7.3 42.7L11.0345 46.4345L13.0741 44.3965L15.1139 42.3586L16.2239 42.9001C16.8345 43.1979 17.8723 43.6261 18.5303 43.8515L19.7266 44.2613V47.1307V50H25H30.2734V47.1268V44.2534L30.6396 44.139C31.6868 43.8118 32.7804 43.3785 33.7761 42.8962L34.8861 42.3586L36.9259 44.3965L38.9655 46.4345L42.7 42.7L46.4345 38.9655L44.3965 36.9259L42.3586 34.8861L42.9001 33.7761C43.1979 33.1655 43.6261 32.1277 43.8515 31.4697L44.2613 30.2734H47.1307H50V25V19.7266H47.1307H44.2613L43.8515 18.5303C43.6261 17.8723 43.1979 16.8345 42.9001 16.2239L42.3586 15.1139L44.3965 13.0741L46.4345 11.0345L42.7 7.3L38.9655 3.56553L36.9164 5.61289L34.8672 7.66035L34.2061 7.30508C33.4179 6.88135 32.1872 6.37002 31.0791 6.00566L30.2734 5.74082V2.87041V0H25H19.7266V2.86934ZM21.6309 9.54102C21.5234 9.56611 21.2097 9.65068 20.9335 9.72881L20.4314 9.871L20.6268 10.5263C20.7341 10.8867 20.8365 11.1973 20.8542 11.2163C20.8923 11.2572 22.0753 10.965 22.1422 10.8981C22.2051 10.8354 21.9556 9.46982 21.8838 9.48398C21.8521 9.49023 21.7383 9.51592 21.6309 9.54102ZM18.181 10.7417L17.5631 11.034L17.8782 11.5961C18.0516 11.9053 18.2253 12.1945 18.2644 12.239C18.3033 12.2833 18.6047 12.1837 18.9339 12.0175L19.5324 11.7153L19.3759 11.3509C19.2897 11.1504 19.1753 10.8655 19.1216 10.7178C19.0679 10.57 18.9732 10.4492 18.9113 10.4493C18.8494 10.4493 18.5208 10.5809 18.181 10.7417ZM15.6481 12.2697C14.9646 12.7603 14.9655 12.7366 15.5984 13.4554L15.9668 13.8736L16.5039 13.4688C16.7993 13.2462 17.041 13.055 17.041 13.044C17.041 13.0331 16.8647 12.756 16.6494 12.4282L16.2578 11.8323L15.6481 12.2697ZM23.5521 12.2109C18.1993 12.8839 13.8529 16.6745 12.5519 21.8046C11.5091 25.9165 12.4761 30.0988 15.227 33.374C15.5089 33.7098 15.7924 33.9844 15.8568 33.9844C15.9214 33.9844 16.1845 33.7709 16.4415 33.51L16.9088 33.0354L16.3999 32.4602C12.6337 28.2018 12.704 21.5231 16.5587 17.3706C18.309 15.4851 20.2861 14.3586 22.8027 13.8129C23.8699 13.5814 26.1277 13.5812 27.1973 13.8123C29.4461 14.2982 31.1975 15.2147 32.8036 16.7463C35.1893 19.0212 36.3565 21.7328 36.3565 25C36.3565 26.9079 36.0841 28.1594 35.2977 29.8641C34.3889 31.834 32.4987 33.8636 30.5664 34.9444C26.8386 37.0297 22.1557 36.8314 18.615 34.4386C18.2453 34.1888 17.932 33.9844 17.9188 33.9844C17.9057 33.9844 17.7084 34.2261 17.4805 34.5216C16.9895 35.1579 16.9806 35.1378 18.0509 35.8229C19.0401 36.4562 19.6003 36.7325 20.635 37.0974C25.4119 38.7817 30.5232 37.634 34.0786 34.0786C35.9554 32.2019 37.133 29.9666 37.659 27.2826C37.8888 26.1103 37.8888 23.8897 37.659 22.7174C36.6058 17.3433 32.6421 13.3644 27.3398 12.3586C26.3133 12.1639 24.4916 12.0929 23.5521 12.2109ZM23.2422 16.3575C21.5029 16.709 20.1403 17.4578 18.799 18.799C17.0268 20.5714 16.2109 22.526 16.2109 25C16.2109 27.3681 17.0053 29.3552 18.6445 31.0881C21.422 34.0241 25.8676 34.6487 29.454 32.6068C30.3357 32.1048 31.5757 30.9774 32.173 30.1347C32.5833 29.5559 33.1055 28.6061 33.1055 28.4386C33.1055 28.3587 31.8355 27.793 31.7896 27.8522C31.7774 27.868 31.6248 28.152 31.4505 28.4833C30.7362 29.841 29.6339 30.8864 28.1738 31.5908C27.0987 32.1095 26.1692 32.3242 25 32.3242C23.8308 32.3242 22.9013 32.1095 21.8262 31.5908C20.2406 30.8259 19.1741 29.7594 18.4092 28.1738C17.8905 27.0987 17.6758 26.1692 17.6758 25C17.6758 23.8308 17.8905 22.9013 18.4092 21.8262C19.1741 20.2406 20.2406 19.1741 21.8262 18.4092C22.9013 17.8905 23.8308 17.6758 25 17.6758C26.1692 17.6758 27.0987 17.8905 28.1738 18.4092C29.7589 19.1738 30.8249 20.2396 31.5915 21.8262C32.182 23.0483 32.362 23.9523 32.3025 25.3973L32.2551 26.5483L32.9 26.6944C33.2634 26.7767 33.5829 26.8036 33.6319 26.7562C33.7801 26.6124 33.8255 24.3763 33.6966 23.5769C33.1122 19.9544 30.2996 17.0596 26.676 16.3511C25.8029 16.1804 24.1032 16.1836 23.2422 16.3575ZM26.0294 24.1702L23.6982 26.939L23.3922 26.5311C23.2239 26.3066 22.764 25.6752 22.3701 25.1277L21.6541 24.1324L21.0785 24.5383C20.762 24.7615 20.5231 24.9969 20.5479 25.0612C20.5726 25.1256 21.2633 26.1065 22.0829 27.2411L23.5729 29.3041L23.8353 29.0319C23.9796 28.8822 25.3147 27.3137 26.8022 25.5461L29.5069 22.3325L29.0845 21.9565C28.8521 21.7498 28.5942 21.5403 28.5113 21.491C28.3912 21.4196 27.887 21.9639 26.0294 24.1702Z" fill="#004333"/>
</svg>
