<svg width="50" height="50" viewBox="0 0 50 50" fill="none" xmlns="http://www.w3.org/2000/svg">
<path fill-rule="evenodd" clip-rule="evenodd" d="M23.5857 0.141546C22.2064 0.437563 20.7027 1.35417 19.8524 2.41727C18.7968 3.73697 18.2984 5.29989 18.3875 7.01086C18.4758 8.70511 19.0271 10.0016 20.1797 11.2252L20.7967 11.8801L19.9444 12.3017C18.418 13.0569 17.2252 14.5306 16.8498 16.1251C16.7341 16.6169 16.7023 17.4546 16.7012 20.0425L16.6997 23.3344L15.1618 23.3688C13.8127 23.3991 13.5749 23.4293 13.2266 23.6148C13.0082 23.7312 12.7722 23.8956 12.702 23.9801C12.4991 24.2249 12.4418 24.168 12.3137 23.5946C12.059 22.4551 11.0619 20.9606 10.1292 20.3207L9.79138 20.0888L10.3405 19.7316C11.6054 18.9086 12.7364 17.3103 13.1418 15.7727C13.3445 15.0041 13.3437 13.324 13.1404 12.5456C12.5748 10.3804 10.8329 8.51207 8.75404 7.84082C5.09694 6.65998 1.24552 8.76721 0.224485 12.5078C-0.0459084 13.4982 0.000768457 15.1671 0.326627 16.1639C0.800231 17.6122 1.80095 18.9474 2.99111 19.7188L3.49059 20.0425L2.63947 20.8903C1.72215 21.8039 1.30752 22.4996 1.02903 23.5922C0.799938 24.4909 0.807653 37.2504 1.03781 38.0271C1.28946 38.8767 1.6453 39.4872 2.26606 40.1346L2.84532 40.7388L1.55888 42.9641C0.851302 44.188 0.206811 45.3823 0.126542 45.618C-0.0955147 46.2707 -0.0104613 48.108 0.265889 48.6309C0.508452 49.0898 0.986157 49.5621 1.4663 49.8179C1.79685 49.994 2.56868 50 25 50C47.4314 50 48.2032 49.994 48.5337 49.8179C49.0139 49.5621 49.4916 49.0898 49.7341 48.6309C50.0126 48.1042 50.0956 46.2706 49.8708 45.61C49.789 45.3697 49.1445 44.1754 48.4385 42.9558L47.155 40.7385L47.7342 40.1344C48.3547 39.4872 48.7106 38.8766 48.9622 38.0271C49.1924 37.2504 49.2001 24.4909 48.971 23.5922C48.6921 22.498 48.2781 21.8042 47.3566 20.8863L46.5013 20.0345L46.9524 19.7698C47.5796 19.4018 48.609 18.3237 49.0489 17.5744C49.2517 17.2289 49.5342 16.5942 49.6767 16.1639C49.898 15.496 49.9365 15.2099 49.9396 14.2081C49.9423 13.3536 49.8957 12.8751 49.768 12.4478C49.1861 10.4995 47.9667 9.03036 46.239 8.1961C42.4966 6.38919 38.1007 8.3512 36.9351 12.3487C36.6544 13.3116 36.6197 14.8631 36.8588 15.7727C37.2637 17.314 38.3692 18.8737 39.6515 19.7128L40.2173 20.0829L39.8752 20.3177C38.9382 20.9606 37.9415 22.4528 37.6864 23.5946C37.5582 24.168 37.5009 24.2249 37.298 23.9801C37.2279 23.8956 36.9919 23.7312 36.7734 23.6148C36.4251 23.4293 36.1873 23.3991 34.8383 23.3688L33.3003 23.3344L33.2988 20.0425C33.2978 17.4546 33.2659 16.6169 33.1502 16.1251C32.775 14.5312 31.5819 13.0569 30.057 12.3025L29.2062 11.8816L29.8678 11.172C32.1176 8.75948 32.2302 5.01893 30.132 2.39673C28.6511 0.545917 25.9837 -0.372938 23.5857 0.141546ZM26.2277 1.83912C29.2888 2.62322 30.8388 5.9594 29.4818 8.84329C28.2366 11.4893 24.783 12.4569 22.3076 10.8533C19.6547 9.13471 19.2317 5.40306 21.4392 3.19237C22.1372 2.49335 22.8468 2.07627 23.7337 1.84372C24.6757 1.59679 25.277 1.59562 26.2277 1.83912ZM7.6294 9.27103C8.34733 9.40657 9.42744 9.94013 9.98014 10.4324C11.0486 11.384 11.6219 12.6827 11.6219 14.1517C11.6219 15.6193 11.1878 16.6729 10.1679 17.6804C9.12355 18.712 8.07752 19.1466 6.63894 19.1466C3.25799 19.1466 0.852767 15.7527 1.95661 12.5395C2.22309 11.764 2.64787 11.1324 3.32547 10.5041C4.50586 9.4097 6.03809 8.97071 7.6294 9.27103ZM44.3544 9.27983C45.9897 9.62142 47.499 10.955 48.0434 12.5395C49.1473 15.7527 46.742 19.1466 43.3611 19.1466C41.9225 19.1466 40.8765 18.712 39.8321 17.6804C38.8123 16.6729 38.3781 15.6193 38.3781 14.1517C38.3781 13.1102 38.6141 12.2777 39.1405 11.4621C40.2409 9.75696 42.3707 8.86559 44.3544 9.27983ZM29.3109 13.7901C30.2105 14.2355 30.8483 14.8864 31.2804 15.7998L31.5914 16.4573L31.6205 19.9045L31.6495 23.3516H30.8149H29.9802V20.2668V17.1818L29.7405 16.9418C29.4771 16.678 28.9692 16.6219 28.7022 16.8271C28.3435 17.103 28.3201 17.3191 28.3201 20.3625V23.3516H25H21.6799V20.3625C21.6799 17.3191 21.6566 17.103 21.2978 16.8271C21.0308 16.6219 20.523 16.678 20.2596 16.9418L20.0199 17.1818V20.2668V23.3516H19.1851H18.3505L18.3795 19.9045L18.4086 16.4573L18.7177 15.804C19.2405 14.6989 20.0635 13.9632 21.2392 13.5503C21.6759 13.397 22.0979 13.3809 25.1519 13.4021L28.575 13.4257L29.3109 13.7901ZM7.81357 21.0249C8.43248 21.2079 9.27247 21.7098 9.65428 22.1247C10.5699 23.1195 10.8608 24.0276 10.8195 25.7624L10.7919 26.9211L10.208 25.8942C9.88678 25.3295 9.52626 24.7684 9.40674 24.6474C9.1214 24.3583 8.68012 24.3632 8.33659 24.6591C7.85683 25.0724 7.93583 25.3133 9.37852 27.8379C10.097 29.0951 10.8097 30.2487 10.9621 30.4014C11.1146 30.5541 11.4024 30.7244 11.6015 30.7798C11.8058 30.8367 13.0406 30.8808 14.4343 30.881C17.1691 30.8817 17.323 30.911 17.6802 31.4976C17.785 31.6697 17.871 31.9808 17.8712 32.1889C17.8715 32.4981 17.8024 32.6364 17.4925 32.9468L17.1133 33.3264H13.7298C10.0654 33.3264 9.96881 33.3142 9.44648 32.7862C9.29727 32.6354 8.48511 31.298 7.64171 29.8143C6.7982 28.3306 5.98986 26.9956 5.84533 26.8477C5.68929 26.688 5.47739 26.5788 5.32349 26.5788C4.9863 26.5788 4.49346 27.0671 4.49346 27.401C4.49346 27.544 5.10846 28.7343 5.92472 30.1712C6.71188 31.557 7.35637 32.7377 7.35686 32.795C7.35784 32.8943 3.98871 38.8121 3.7813 39.0755C3.64527 39.2483 3.23797 38.8504 2.86944 38.1845L2.58928 37.6782L2.56223 31.038C2.53821 25.147 2.55305 24.3362 2.69377 23.8515C2.91133 23.1021 3.23436 22.5824 3.83647 22.0132C4.92361 20.9856 6.42176 20.6133 7.81357 21.0249ZM44.4807 21.0238C45.3657 21.2485 46.4219 22.0641 46.9096 22.8993C47.4622 23.8453 47.4596 23.8076 47.4596 30.8468C47.4596 37.0977 47.4526 37.3473 47.2635 37.8534C47.1557 38.1421 46.9078 38.5651 46.7127 38.7933C46.4231 39.1321 46.3358 39.1846 46.2376 39.0789C46.0452 38.8719 42.6422 32.9194 42.6422 32.7898C42.6422 32.7252 43.2867 31.5441 44.0743 30.1651C44.9071 28.7071 45.5066 27.5516 45.5066 27.4041C45.5066 27.0671 45.0156 26.5788 44.6766 26.5788C44.5227 26.5788 44.3108 26.688 44.1547 26.8477C44.0102 26.9956 43.2018 28.3306 42.3583 29.8143C41.5149 31.298 40.7028 32.6354 40.5536 32.7862C40.0312 33.3142 39.9347 33.3264 36.2702 33.3264H32.8867L32.5076 32.9468C32.205 32.6437 32.1285 32.4947 32.1285 32.2085C32.1285 31.7339 32.3592 31.3079 32.7436 31.0733C33.032 30.8972 33.2493 30.8823 35.5462 30.8814C36.9521 30.8809 38.194 30.8367 38.3985 30.7798C38.5976 30.7244 38.8833 30.5547 39.0332 30.4026C39.1831 30.2507 39.8944 29.097 40.6139 27.8391C42.0584 25.3134 42.1392 25.069 41.6635 24.6591C41.3199 24.3632 40.8786 24.3583 40.5933 24.6474C40.4738 24.7684 40.1136 25.3295 39.793 25.8942C39.1176 27.0835 39.1137 27.0795 39.1829 25.2586C39.2169 24.3648 39.278 23.9569 39.439 23.5472C40.2366 21.5178 42.3201 20.4751 44.4807 21.0238ZM36.0646 25.1212C36.2188 25.1915 36.6343 25.803 37.2774 26.9059L38.2556 28.5835L38.0918 28.8769L37.928 29.1703L35.248 29.2192C32.5766 29.2679 32.5664 29.2689 32.0797 29.5283C29.9087 30.6852 29.9558 33.7235 32.1606 34.7516C32.6654 34.9869 32.6668 34.9869 36.2907 34.9879C40.1952 34.989 40.3391 34.9731 41.1255 34.4533L41.4806 34.2186L44.5677 39.578C46.2656 42.5257 47.6549 44.9653 47.6549 44.9994C47.6549 45.0335 37.4602 45.0615 25 45.0615C12.5398 45.0615 2.34516 45.0335 2.34516 44.9994C2.34516 44.9653 3.73443 42.5257 5.43237 39.578L8.51949 34.2186L8.87454 34.4533C9.66092 34.9731 9.80486 34.989 13.7093 34.9879C17.3332 34.9869 17.3347 34.9869 17.8394 34.7516C19.3178 34.0622 19.9457 32.3296 19.2341 30.9033C18.9138 30.2614 18.4986 29.8388 17.8444 29.4887C17.4529 29.2792 17.2972 29.2656 14.752 29.2192L12.072 29.1703L11.9082 28.8769L11.7445 28.5835L12.7231 26.905C13.263 25.9791 13.7938 25.1818 13.9069 25.127C14.2047 24.9823 35.7481 24.9767 36.0646 25.1212ZM48.3384 47.2693C48.3384 47.7418 48.3003 47.853 48.053 48.1006L47.7676 48.3864H25H2.23247L1.94704 48.1006C1.69979 47.853 1.6616 47.7418 1.6616 47.2693V46.724H25H48.3384V47.2693Z" fill="#004333"/>
</svg>
